<?xml version="1.0" standalone="no"?>
<!DOCTYPE svg PUBLIC "-//W3C//DTD SVG 20010904//EN"
 "http://www.w3.org/TR/2001/REC-SVG-20010904/DTD/svg10.dtd">
<svg version="1.0" xmlns="http://www.w3.org/2000/svg"  x="0px" y="0px"
 width="130.22px" height="44px" viewBox="0 0 200.000000 200.000000" enable-background="new 0 0 4444.9 1501.9" 
 preserveAspectRatio="xMidYMid meet">
 

<g transform="translate(0.000000,200.000000) scale(0.100000,-0.100000)"
fill="#000000" stroke="none">
<path d="M256 1191 c-11 -18 6 -42 28 -39 29 4 29 42 -1 46 -11 2 -24 -1 -27
-7z"/>
<path d="M707 1194 c-4 -4 -7 -16 -7 -26 0 -15 6 -19 28 -16 19 2 27 9 27 23
0 20 -33 33 -48 19z"/>
<path d="M1217 1193 c-4 -3 -7 -15 -7 -25 0 -12 7 -18 24 -18 24 0 41 23 30
41 -6 10 -38 12 -47 2z"/>
<path d="M360 1026 l0 -156 25 0 c24 0 24 1 27 95 2 53 7 96 13 97 6 0 19 -15
29 -35 26 -49 57 -50 85 -2 33 56 41 44 41 -60 l0 -95 29 0 30 0 -1 155 -1
155 -33 0 c-19 0 -34 -4 -34 -9 0 -17 -64 -121 -75 -121 -5 0 -24 29 -41 63
-28 54 -36 62 -63 65 l-31 3 0 -155z"/>
<path d="M256 1101 c-2 -3 -3 -55 -2 -116 l1 -110 28 -3 27 -3 0 114 c0 115 0
115 -25 119 -14 3 -27 3 -29 -1z"/>
<path d="M707 1104 c-4 -4 -7 -59 -7 -121 l0 -114 28 3 27 3 0 115 c0 108 -1
115 -20 118 -12 2 -24 0 -28 -4z"/>
<path d="M837 1103 c-15 -2 -32 -13 -37 -23 -12 -22 -4 -66 13 -73 7 -3 31
-19 55 -37 37 -27 42 -33 31 -47 -10 -11 -24 -14 -56 -9 -37 5 -43 3 -43 -13
0 -40 97 -44 135 -6 44 43 24 90 -52 121 -51 22 -42 49 17 50 45 1 54 6 48 25
-4 12 -70 19 -111 12z"/>
<path d="M1022 1095 c-17 -13 -22 -25 -20 -48 2 -26 13 -38 56 -66 28 -18 52
-40 52 -47 0 -17 -42 -28 -80 -20 -25 4 -30 2 -30 -13 0 -23 19 -31 76 -31 53
0 84 26 84 70 0 26 -8 36 -56 66 -30 19 -53 41 -51 47 2 7 24 12 48 13 24 0
45 4 47 8 9 17 -7 27 -53 32 -38 4 -56 1 -73 -11z"/>
<path d="M1216 1103 c-3 -3 -6 -58 -6 -120 l0 -114 28 3 27 3 0 114 c0 108 -1
114 -21 117 -12 2 -24 1 -28 -3z"/>
<path d="M1363 1103 c-37 -7 -53 -41 -53 -113 0 -71 3 -78 40 -103 39 -27 87
-22 121 12 26 26 29 36 29 93 -1 69 -12 92 -54 108 -28 10 -43 11 -83 3z m77
-52 c13 -25 13 -87 0 -110 -14 -28 -40 -34 -61 -15 -22 20 -27 112 -7 132 18
18 56 14 68 -7z"/>
<path d="M1555 1101 c-3 -2 -5 -56 -5 -118 l0 -114 28 3 27 3 -3 82 c-3 78 -2
83 22 98 15 10 33 14 45 10 18 -5 21 -16 23 -98 l3 -92 28 -3 27 -3 0 96 c0
53 -5 105 -10 115 -13 24 -66 35 -102 21 -16 -6 -30 -6 -33 -1 -5 9 -42 10
-50 1z"/>
</g>
</svg>
