<?xml version="1.0" standalone="no"?>
<!DOCTYPE svg PUBLIC "-//W3C//DTD SVG 20010904//EN"
 "http://www.w3.org/TR/2001/REC-SVG-20010904/DTD/svg10.dtd">
<svg version="1.0" xmlns="http://www.w3.org/2000/svg"  xmlns:xlink="http://www.w3.org/1999/xlink" x="0px" y="0px"
width="130.22px" height="44px"  viewBox="0 0 650.000000 150.000000" enable-background="new 0 0 4444.9 1501.9"
 preserveAspectRatio="xMidYMid meet">

<g transform="translate(0.000000,150.000000) scale(0.100000,-0.100000)"
fill="#000000" stroke="none">
<path d="M0 750 l0 -750 4000 0 4000 0 0 750 0 750 -4000 0 -4000 0 0 -750z
m350 470 l0 -100 -125 0 -125 0 0 100 0 100 125 0 125 0 0 -100z m4671 54
c164 -48 294 -183 345 -359 11 -38 17 -94 17 -155 0 -158 -51 -288 -153 -390
-232 -232 -645 -188 -810 86 -59 99 -79 174 -80 297 0 125 26 220 84 310 71
111 209 204 336 226 70 13 191 5 261 -15z m-2375 2 c59 -16 165 -70 189 -96
16 -17 15 -21 -6 -49 -13 -17 -26 -31 -31 -31 -4 0 -31 16 -58 36 -104 75
-274 98 -375 50 -163 -77 -163 -259 0 -331 27 -12 106 -36 175 -53 142 -35
187 -52 246 -93 117 -80 127 -276 21 -387 -60 -63 -168 -102 -280 -102 -126 1
-285 59 -375 138 l-42 37 31 33 30 33 38 -34 c90 -81 196 -121 321 -121 71 -1
94 4 141 26 79 36 112 82 117 164 8 120 -51 165 -299 228 -256 64 -330 128
-331 284 -1 120 61 209 178 257 49 20 76 25 159 25 55 0 123 -6 151 -14z m936
-6 c36 -11 92 -38 127 -60 66 -43 68 -52 22 -94 -20 -18 -21 -18 -56 8 -70 53
-143 80 -236 84 -52 3 -102 0 -125 -8 -105 -33 -160 -103 -152 -195 9 -103 71
-147 285 -201 164 -41 249 -80 297 -135 85 -100 67 -275 -38 -365 -65 -56
-135 -77 -256 -78 -161 -1 -259 35 -404 148 -18 15 -18 16 8 50 l26 35 63 -47
c80 -61 149 -90 245 -104 92 -13 169 0 229 38 128 84 123 248 -10 315 -22 12
-99 36 -171 54 -189 48 -242 70 -296 124 -36 36 -50 59 -60 100 -36 150 37
278 188 333 69 25 230 24 314 -2z m3618 9 c53 -12 153 -60 193 -92 l27 -23
-28 -33 -28 -33 -64 41 c-88 57 -152 74 -260 69 -71 -3 -94 -9 -133 -31 -66
-39 -91 -78 -95 -152 -3 -50 0 -66 20 -95 34 -51 109 -87 264 -126 271 -68
347 -132 348 -289 1 -207 -184 -326 -444 -286 -85 13 -199 63 -272 119 -26 20
-48 39 -48 43 0 4 12 21 26 38 l25 30 52 -41 c175 -138 418 -155 523 -36 42
47 58 98 49 154 -13 91 -84 135 -289 184 -269 63 -355 143 -344 316 7 106 77
194 188 234 62 22 213 27 290 9z m-6360 -299 c112 -164 206 -298 209 -296 3 2
96 137 206 300 l200 295 43 1 42 0 0 -520 0 -520 -45 0 -45 0 -2 435 -3 434
-195 -284 c-107 -157 -199 -285 -205 -285 -5 1 -98 129 -205 286 l-195 285 -3
-435 -2 -436 -45 0 -45 0 0 520 0 520 43 0 43 0 204 -300z m1070 -220 l0 -520
-45 0 -45 0 0 520 0 520 45 0 45 0 0 -520z m2190 0 l0 -520 -40 0 -40 0 0 520
0 520 40 0 40 0 0 -520z m1937 80 l348 -439 3 439 2 440 45 0 45 0 0 -520 0
-520 -37 0 c-38 0 -39 1 -393 449 l-355 448 -3 -448 -2 -449 -40 0 -40 0 0
520 0 520 39 0 39 0 349 -440z m-5697 -200 l0 -400 -115 0 -115 0 0 400 0 400
115 0 115 0 0 -400z"/>
<path d="M4770 1207 c-84 -19 -149 -55 -211 -116 -138 -138 -174 -357 -89
-536 159 -334 613 -339 776 -10 147 297 -39 644 -358 669 -35 3 -88 0 -118 -7z"/>
</g>
</svg>
