<svg id="svg" version="1.1" width="1000" height="225" xmlns="http://www.w3.org/2000/svg" xmlns:xlink="http://www.w3.org/1999/xlink" style="display: block;"><g id="svgg"><path id="path0" d="M3.996 4.100 C 0.854 6.238,1.012 5.198,0.900 24.529 C 0.787 44.012,0.767 43.879,4.000 45.778 C 6.207 47.074,101.792 47.074,103.999 45.778 C 107.296 43.841,107.200 44.466,107.200 25.035 C 107.200 5.819,107.263 6.290,104.422 4.209 L 103.045 3.200 54.181 3.200 L 5.318 3.200 3.996 4.100 M85.156 12.956 C 87.633 17.220,87.918 16.851,82.258 16.713 L 77.608 16.600 79.896 12.506 C 82.517 7.815,82.152 7.784,85.156 12.956 M87.600 23.222 L 87.600 26.844 83.600 23.380 C 81.400 21.475,79.600 19.845,79.600 19.758 C 79.600 19.671,81.400 19.600,83.600 19.600 L 87.600 19.600 87.600 23.222 M74.229 29.505 C 73.982 29.751,65.997 25.257,66.008 24.877 C 66.012 24.725,67.857 23.572,70.108 22.316 L 74.200 20.033 74.313 24.670 C 74.375 27.220,74.337 29.396,74.229 29.505 M97.100 23.692 C 98.035 24.169,98.800 24.693,98.800 24.857 C 98.800 25.143,91.132 29.600,90.640 29.600 C 90.508 29.600,90.400 27.424,90.400 24.764 L 90.400 19.927 92.900 21.376 C 94.275 22.172,96.165 23.215,97.100 23.692 M19.539 22.516 C 20.988 23.718,20.776 26.757,19.184 27.608 C 17.124 28.711,14.400 27.253,14.400 25.047 C 14.400 22.260,17.432 20.767,19.539 22.516 M36.831 22.769 C 38.274 24.212,38.339 25.697,37.018 27.018 C 35.117 28.919,31.600 27.601,31.600 24.987 C 31.600 23.705,33.589 21.600,34.800 21.600 C 35.274 21.600,36.188 22.126,36.831 22.769 M53.326 22.065 C 56.375 23.689,55.427 28.000,52.021 28.000 C 48.748 28.000,48.081 23.031,51.200 21.884 C 52.127 21.543,52.387 21.565,53.326 22.065 M82.600 27.743 L 85.000 29.964 81.100 29.982 L 77.200 30.000 77.200 26.566 L 77.200 23.133 78.700 24.327 C 79.525 24.984,81.280 26.521,82.600 27.743 M86.377 34.727 C 85.899 35.537,84.860 37.325,84.068 38.700 C 82.271 41.823,82.555 41.919,79.911 37.300 C 77.291 32.722,77.122 32.934,83.231 33.127 L 87.247 33.254 86.377 34.727 M138.000 83.400 L 138.000 87.600 142.200 87.600 C 147.744 87.600,148.510 86.507,143.100 86.316 C 139.830 86.201,139.799 86.190,139.673 85.100 C 139.550 84.028,139.599 84.000,141.573 84.000 C 144.362 84.000,144.471 82.900,141.700 82.722 C 139.960 82.610,139.789 82.507,139.673 81.500 L 139.547 80.400 142.973 80.400 C 145.753 80.400,146.400 80.287,146.400 79.800 C 146.400 79.305,145.667 79.200,142.200 79.200 L 138.000 79.200 138.000 83.400 M243.600 79.515 C 243.600 79.688,244.500 80.717,245.600 81.800 C 247.456 83.628,247.600 83.910,247.600 85.714 C 247.600 88.584,248.945 88.303,249.121 85.396 C 249.231 83.599,249.449 83.190,251.308 81.300 C 253.912 78.652,252.775 78.281,250.083 80.900 L 248.335 82.600 246.813 80.900 C 245.466 79.396,243.600 78.591,243.600 79.515 M305.200 83.400 C 305.200 86.867,305.305 87.600,305.800 87.600 C 306.280 87.600,306.400 87.000,306.400 84.600 C 306.400 82.950,306.498 81.600,306.617 81.600 C 306.736 81.600,308.378 82.950,310.265 84.600 C 314.801 88.566,314.800 88.566,314.800 83.400 C 314.800 78.025,313.716 77.057,313.517 82.255 L 313.400 85.310 309.741 82.255 C 305.066 78.351,305.200 78.317,305.200 83.400 M152.400 84.200 C 152.400 87.706,153.157 89.132,153.250 85.800 C 153.278 84.810,153.345 83.820,153.400 83.600 C 153.455 83.380,153.523 83.101,153.550 82.980 C 153.605 82.736,155.743 84.268,158.172 86.291 C 160.581 88.297,160.800 88.124,160.800 84.200 C 160.800 81.444,160.686 80.800,160.200 80.800 C 159.739 80.800,159.600 81.311,159.600 83.000 C 159.600 84.274,159.423 85.200,159.179 85.200 C 158.947 85.200,157.517 84.210,156.000 83.000 C 152.412 80.137,152.400 80.141,152.400 84.200 M166.400 84.200 L 166.400 87.600 170.200 87.600 C 173.311 87.600,174.000 87.491,174.000 87.000 C 174.000 86.520,173.400 86.400,171.000 86.400 C 168.067 86.400,168.000 86.378,168.000 85.400 C 168.000 84.500,168.160 84.400,169.600 84.400 C 170.480 84.400,171.200 84.220,171.200 84.000 C 171.200 83.780,170.480 83.600,169.600 83.600 C 168.160 83.600,168.000 83.500,168.000 82.600 C 168.000 81.629,168.080 81.600,170.800 81.600 C 172.400 81.600,173.600 81.429,173.600 81.200 C 173.600 80.963,172.133 80.800,170.000 80.800 L 166.400 80.800 166.400 84.200 M178.800 84.200 C 178.800 87.727,179.781 89.343,180.075 86.300 C 180.259 84.393,181.598 84.343,183.619 86.170 C 184.490 86.956,185.598 87.600,186.081 87.600 C 187.008 87.600,186.932 87.488,185.053 86.074 C 184.025 85.301,183.984 85.187,184.653 84.977 C 186.691 84.337,187.272 83.228,186.411 81.621 C 186.018 80.887,185.593 80.800,182.386 80.800 L 178.800 80.800 178.800 84.200 M192.168 81.340 C 192.054 81.637,192.015 83.122,192.080 84.640 L 192.200 87.400 195.740 87.516 C 199.873 87.652,200.497 87.341,200.320 85.234 C 200.193 83.721,197.390 82.850,196.266 83.974 C 195.965 84.275,196.069 84.418,196.620 84.461 C 197.049 84.494,197.580 84.564,197.800 84.615 C 198.020 84.666,198.425 84.728,198.700 84.754 C 198.975 84.779,199.200 85.160,199.200 85.600 C 199.200 86.329,198.933 86.400,196.200 86.400 L 193.200 86.400 193.200 84.000 L 193.200 81.600 195.920 81.600 C 197.502 81.600,198.841 81.801,199.120 82.080 C 199.493 82.453,199.710 82.450,200.097 82.063 C 200.958 81.202,199.655 80.813,195.887 80.806 C 193.304 80.802,192.320 80.943,192.168 81.340 M206.000 84.200 C 206.000 86.956,206.114 87.600,206.600 87.600 C 207.086 87.600,207.200 86.956,207.200 84.200 C 207.200 81.444,207.086 80.800,206.600 80.800 C 206.114 80.800,206.000 81.444,206.000 84.200 M212.800 81.200 C 212.800 81.422,213.867 81.600,215.200 81.600 C 218.178 81.600,218.174 81.667,214.995 84.569 C 211.683 87.592,211.686 87.600,216.200 87.600 C 219.126 87.600,220.000 87.476,220.000 87.059 C 220.000 86.664,219.403 86.532,217.778 86.570 C 214.551 86.644,214.515 86.393,217.396 83.848 C 220.731 80.903,220.698 80.800,216.400 80.800 C 214.267 80.800,212.800 80.963,212.800 81.200 M225.368 81.340 C 225.254 81.637,225.215 83.122,225.280 84.640 L 225.400 87.400 229.100 87.515 C 232.212 87.612,232.800 87.532,232.800 87.015 C 232.800 86.516,232.233 86.400,229.800 86.400 C 226.867 86.400,226.800 86.378,226.800 85.400 C 226.800 84.500,226.960 84.400,228.400 84.400 C 229.280 84.400,230.000 84.220,230.000 84.000 C 230.000 83.780,229.280 83.600,228.400 83.600 C 226.960 83.600,226.800 83.500,226.800 82.600 C 226.800 81.622,226.867 81.600,229.800 81.600 C 231.533 81.600,232.800 81.431,232.800 81.200 C 232.800 80.549,225.620 80.684,225.368 81.340 M256.893 81.267 C 256.192 81.968,256.244 86.573,256.960 87.167 C 257.321 87.466,258.846 87.590,261.260 87.516 L 265.000 87.400 265.000 84.200 L 265.000 81.000 261.193 80.887 C 258.574 80.809,257.233 80.927,256.893 81.267 M270.806 83.700 C 270.815 87.666,270.802 87.655,275.034 87.517 L 278.600 87.400 278.716 84.100 C 278.813 81.345,278.731 80.800,278.216 80.800 C 277.720 80.800,277.600 81.345,277.600 83.600 L 277.600 86.400 274.800 86.400 L 272.000 86.400 272.000 83.600 C 272.000 81.378,271.876 80.800,271.400 80.800 C 270.921 80.800,270.801 81.386,270.806 83.700 M284.800 84.185 C 284.800 86.954,284.914 87.600,285.400 87.600 C 285.819 87.600,286.000 87.178,286.000 86.200 C 286.000 84.309,287.248 84.309,289.373 86.200 C 290.238 86.970,291.318 87.595,291.773 87.589 C 292.496 87.580,292.436 87.441,291.296 86.489 C 289.710 85.164,289.680 84.890,291.100 84.727 C 292.118 84.609,292.200 84.466,292.200 82.800 L 292.200 81.000 288.500 80.885 L 284.800 80.770 284.800 84.185 M321.200 84.200 L 321.200 87.600 325.000 87.600 C 328.111 87.600,328.800 87.491,328.800 87.000 C 328.800 86.520,328.200 86.400,325.800 86.400 C 322.867 86.400,322.800 86.378,322.800 85.400 C 322.800 84.500,322.960 84.400,324.400 84.400 C 325.280 84.400,326.000 84.220,326.000 84.000 C 326.000 83.780,325.280 83.600,324.400 83.600 C 322.960 83.600,322.800 83.500,322.800 82.600 C 322.800 81.629,322.880 81.600,325.600 81.600 C 327.200 81.600,328.400 81.429,328.400 81.200 C 328.400 80.963,326.933 80.800,324.800 80.800 L 321.200 80.800 321.200 84.200 M332.800 81.200 C 332.800 81.420,333.520 81.600,334.400 81.600 L 336.000 81.600 336.000 84.600 C 336.000 87.333,336.071 87.600,336.800 87.600 C 337.529 87.600,337.600 87.333,337.600 84.600 L 337.600 81.600 339.200 81.600 C 340.080 81.600,340.800 81.420,340.800 81.200 C 340.800 80.960,339.200 80.800,336.800 80.800 C 334.400 80.800,332.800 80.960,332.800 81.200 M345.336 82.100 C 347.242 86.626,347.757 87.600,348.249 87.600 C 348.552 87.600,348.800 87.408,348.800 87.174 C 348.800 86.466,350.477 82.800,350.800 82.800 C 350.967 82.800,351.506 83.880,352.000 85.200 C 352.494 86.520,353.133 87.600,353.420 87.600 C 353.943 87.600,356.616 81.283,356.249 80.915 C 355.800 80.466,355.190 81.360,354.541 83.422 C 353.698 86.093,353.276 86.028,352.292 83.075 C 351.342 80.225,350.733 80.209,349.597 83.007 C 348.393 85.973,348.216 85.988,347.136 83.203 C 346.484 81.523,345.991 80.800,345.497 80.800 C 344.853 80.800,344.839 80.917,345.336 82.100 M361.190 81.826 C 359.644 85.894,360.861 87.600,365.310 87.600 C 369.777 87.600,370.000 87.439,370.000 84.200 C 370.000 80.961,369.777 80.800,365.310 80.800 C 361.674 80.800,361.570 80.826,361.190 81.826 M375.600 84.185 C 375.600 86.954,375.714 87.600,376.200 87.600 C 376.619 87.600,376.800 87.178,376.800 86.200 C 376.800 84.312,378.046 84.309,380.204 86.192 C 381.082 86.958,382.160 87.581,382.600 87.576 C 383.283 87.569,383.210 87.405,382.100 86.455 C 380.517 85.099,380.492 84.889,381.900 84.727 C 382.918 84.609,383.000 84.466,383.000 82.800 L 383.000 81.000 379.300 80.885 L 375.600 80.770 375.600 84.185 M388.800 84.200 C 388.800 87.942,389.821 89.358,390.077 85.972 L 390.200 84.344 392.507 85.999 C 393.940 87.027,395.152 87.606,395.707 87.527 C 396.459 87.420,396.236 87.156,394.300 85.861 C 391.521 84.002,391.517 83.971,393.900 82.327 C 395.243 81.401,395.602 80.977,395.126 80.884 C 394.755 80.811,393.495 81.411,392.326 82.217 L 390.200 83.683 390.076 82.241 C 389.801 79.045,388.800 80.582,388.800 84.200 M185.399 82.396 C 185.808 83.686,185.292 84.000,182.764 84.000 C 180.300 84.000,179.630 83.540,180.145 82.200 C 180.531 81.193,185.071 81.362,185.399 82.396 M264.000 84.000 L 264.000 86.400 261.000 86.400 L 258.000 86.400 258.000 84.000 L 258.000 81.600 261.000 81.600 L 264.000 81.600 264.000 84.000 M291.000 82.800 C 291.000 83.747,290.868 83.806,288.500 83.919 L 286.000 84.038 286.000 82.800 L 286.000 81.562 288.500 81.681 C 290.868 81.794,291.000 81.853,291.000 82.800 M368.720 84.100 L 368.840 86.400 365.620 86.400 L 362.400 86.400 362.400 83.983 L 362.400 81.566 365.500 81.683 L 368.600 81.800 368.720 84.100 M381.800 82.800 C 381.800 83.747,381.668 83.806,379.300 83.919 L 376.800 84.038 376.800 82.800 L 376.800 81.562 379.300 81.681 C 381.668 81.794,381.800 81.853,381.800 82.800 " stroke="none" fill="#201918" fill-rule="evenodd"></path><path id="path1" d="M30.331 3.100 C 43.603 3.158,65.203 3.158,78.331 3.100 C 91.459 3.041,80.600 2.994,54.200 2.994 C 27.800 2.994,17.059 3.041,30.331 3.100 M107.383 24.800 C 107.383 34.150,107.436 37.975,107.500 33.300 C 107.564 28.625,107.564 20.975,107.500 16.300 C 107.436 11.625,107.383 15.450,107.383 24.800 M0.582 24.800 C 0.582 33.270,0.635 36.735,0.699 32.500 C 0.764 28.265,0.764 21.335,0.699 17.100 C 0.635 12.865,0.582 16.330,0.582 24.800 M105.780 44.432 C 105.633 44.670,104.947 45.210,104.256 45.631 C 103.565 46.052,103.222 46.398,103.494 46.399 C 104.006 46.400,106.813 44.032,106.324 44.012 C 106.172 44.005,105.927 44.195,105.780 44.432 M15.373 56.526 C 15.262 56.815,15.230 59.020,15.301 61.426 L 15.430 65.800 15.515 61.133 C 15.575 57.841,15.747 56.407,16.100 56.265 C 16.492 56.107,16.489 56.056,16.087 56.032 C 15.806 56.014,15.484 56.237,15.373 56.526 M51.467 56.267 C 51.320 56.413,51.200 59.743,51.200 63.667 L 51.200 70.800 52.600 70.800 C 53.679 70.800,53.993 70.639,53.968 70.100 C 53.950 69.682,53.856 69.601,53.735 69.900 C 53.624 70.175,53.098 70.400,52.567 70.400 L 51.600 70.400 51.600 63.433 C 51.600 58.234,51.727 56.415,52.100 56.265 C 52.379 56.152,52.409 56.049,52.167 56.032 C 51.928 56.014,51.613 56.120,51.467 56.267 M81.198 61.719 L 81.397 67.400 81.511 62.032 C 81.573 59.080,81.484 56.523,81.312 56.351 C 81.140 56.178,81.089 58.594,81.198 61.719 M269.600 56.351 C 269.600 56.544,269.905 56.949,270.277 57.251 C 270.841 57.709,270.899 57.710,270.626 57.255 C 270.424 56.920,270.510 56.576,270.849 56.361 C 271.258 56.102,271.168 56.011,270.500 56.006 C 270.005 56.003,269.600 56.158,269.600 56.351 M286.221 56.435 C 286.369 56.674,285.885 57.529,285.145 58.335 C 283.816 59.784,283.820 59.783,285.501 58.219 C 287.316 56.530,287.573 56.000,286.576 56.000 C 286.229 56.000,286.072 56.193,286.221 56.435 M312.267 56.267 C 311.681 56.852,312.000 58.400,312.700 58.368 C 313.118 58.350,313.199 58.256,312.900 58.135 C 312.625 58.024,312.400 57.603,312.400 57.200 C 312.400 56.797,312.625 56.376,312.900 56.265 C 313.179 56.152,313.209 56.049,312.967 56.032 C 312.728 56.014,312.413 56.120,312.267 56.267 M328.300 56.265 C 328.575 56.376,328.800 56.797,328.800 57.200 C 328.800 57.603,328.575 58.024,328.300 58.135 C 328.001 58.256,328.082 58.350,328.500 58.368 C 329.018 58.392,329.200 58.088,329.200 57.200 C 329.200 56.312,329.018 56.008,328.500 56.032 C 328.082 56.050,328.001 56.144,328.300 56.265 M348.302 57.001 L 348.489 57.977 342.944 58.101 L 337.400 58.225 343.100 58.312 L 348.800 58.400 348.800 57.424 C 348.800 56.887,348.646 56.352,348.458 56.236 C 348.270 56.119,348.200 56.464,348.302 57.001 M355.467 56.267 C 355.320 56.413,355.200 59.743,355.200 63.667 L 355.200 70.800 356.600 70.800 C 357.370 70.800,358.000 70.651,358.000 70.469 C 358.000 70.287,357.452 70.219,356.782 70.317 L 355.564 70.496 355.682 63.248 C 355.747 59.261,355.785 55.999,355.767 56.000 C 355.748 56.000,355.613 56.120,355.467 56.267 M373.990 56.263 C 374.247 56.391,374.400 59.088,374.400 63.477 L 374.400 70.488 373.000 70.324 C 372.230 70.234,371.600 70.304,371.600 70.480 C 371.600 70.656,372.324 70.800,373.209 70.800 L 374.818 70.800 374.709 63.533 C 374.627 58.034,374.476 56.241,374.090 56.163 C 373.810 56.106,373.764 56.151,373.990 56.263 M397.632 58.267 C 397.614 58.743,397.375 59.224,397.100 59.335 C 396.708 59.493,396.711 59.544,397.113 59.568 C 397.720 59.606,398.161 58.640,397.869 57.913 C 397.756 57.631,397.649 57.790,397.632 58.267 M31.705 58.287 C 32.314 58.379,33.214 58.377,33.705 58.282 C 34.197 58.187,33.700 58.111,32.600 58.114 C 31.500 58.117,31.097 58.195,31.705 58.287 M108.700 58.295 C 109.855 58.376,111.745 58.376,112.900 58.295 C 114.055 58.214,113.110 58.148,110.800 58.148 C 108.490 58.148,107.545 58.214,108.700 58.295 M257.300 58.276 C 257.685 58.376,258.315 58.376,258.700 58.276 C 259.085 58.175,258.770 58.093,258.000 58.093 C 257.230 58.093,256.915 58.175,257.300 58.276 M297.900 58.295 C 299.055 58.376,300.945 58.376,302.100 58.295 C 303.255 58.214,302.310 58.148,300.000 58.148 C 297.690 58.148,296.745 58.214,297.900 58.295 M388.900 58.294 C 389.945 58.376,391.655 58.376,392.700 58.294 C 393.745 58.212,392.890 58.144,390.800 58.144 C 388.710 58.144,387.855 58.212,388.900 58.294 M140.172 58.930 C 140.060 59.222,140.022 61.157,140.087 63.230 L 140.206 67.000 140.403 62.699 C 140.598 58.438,140.565 57.904,140.172 58.930 M152.715 59.600 C 152.618 60.260,152.687 60.800,152.869 60.800 C 153.051 60.800,153.200 60.260,153.200 59.600 C 153.200 58.940,153.130 58.400,153.045 58.400 C 152.960 58.400,152.812 58.940,152.715 59.600 M115.600 59.400 C 115.600 59.730,115.892 60.000,116.249 60.000 C 116.780 60.000,116.808 59.891,116.400 59.400 C 116.126 59.070,115.834 58.800,115.751 58.800 C 115.668 58.800,115.600 59.070,115.600 59.400 M163.350 63.000 C 163.351 65.420,163.416 66.358,163.496 65.085 C 163.576 63.812,163.575 61.832,163.494 60.685 C 163.414 59.538,163.349 60.580,163.350 63.000 M292.109 60.400 C 292.109 61.390,292.187 61.795,292.282 61.300 C 292.378 60.805,292.378 59.995,292.282 59.500 C 292.187 59.005,292.109 59.410,292.109 60.400 M384.893 60.000 C 384.893 60.770,384.975 61.085,385.076 60.700 C 385.176 60.315,385.176 59.685,385.076 59.300 C 384.975 58.915,384.893 59.230,384.893 60.000 M43.753 63.800 C 43.753 66.440,43.818 67.468,43.897 66.084 C 43.975 64.701,43.974 62.541,43.895 61.284 C 43.816 60.028,43.752 61.160,43.753 63.800 M272.800 59.848 C 272.800 60.058,273.745 61.123,274.900 62.215 L 277.000 64.200 275.000 62.008 C 273.900 60.803,272.955 59.738,272.900 59.642 C 272.845 59.545,272.800 59.638,272.800 59.848 M150.000 60.855 C 150.000 61.045,150.450 61.200,151.000 61.200 C 151.550 61.200,152.000 61.131,152.000 61.047 C 152.000 60.962,151.550 60.807,151.000 60.702 C 150.450 60.597,150.000 60.666,150.000 60.855 M202.140 64.400 C 202.140 66.270,202.209 67.035,202.293 66.100 C 202.377 65.165,202.377 63.635,202.293 62.700 C 202.209 61.765,202.140 62.530,202.140 64.400 M227.544 61.900 C 226.393 63.289,225.906 64.000,226.104 64.000 C 226.214 64.000,226.786 63.370,227.373 62.600 C 228.463 61.171,228.595 60.632,227.544 61.900 M102.816 62.011 C 102.789 63.063,103.998 64.403,104.923 64.346 C 105.767 64.293,105.765 64.284,104.867 64.113 C 104.295 64.004,103.721 63.445,103.383 62.668 C 103.080 61.971,102.824 61.675,102.816 62.011 M65.200 63.200 C 64.730 63.860,64.436 64.400,64.546 64.400 C 64.656 64.400,65.130 63.860,65.600 63.200 C 66.070 62.540,66.364 62.000,66.254 62.000 C 66.144 62.000,65.670 62.540,65.200 63.200 M368.759 63.700 C 366.743 66.322,366.689 66.400,366.903 66.400 C 367.013 66.400,367.851 65.410,368.765 64.200 C 369.678 62.990,370.345 62.000,370.247 62.000 C 370.148 62.000,369.479 62.765,368.759 63.700 M382.400 62.649 C 382.400 63.329,383.902 64.503,384.477 64.273 C 384.826 64.133,384.775 64.053,384.323 64.032 C 383.950 64.014,383.365 63.600,383.023 63.111 C 382.680 62.622,382.400 62.414,382.400 62.649 M292.412 63.051 C 292.392 63.808,293.503 64.472,294.478 64.285 C 295.310 64.126,295.295 64.104,294.320 64.054 C 293.726 64.025,293.056 63.685,292.832 63.300 C 292.608 62.915,292.419 62.803,292.412 63.051 M218.400 64.400 C 218.870 65.060,219.344 65.600,219.454 65.600 C 219.564 65.600,219.270 65.060,218.800 64.400 C 218.330 63.740,217.856 63.200,217.746 63.200 C 217.636 63.200,217.930 63.740,218.400 64.400 M250.061 63.818 C 250.424 64.189,250.940 64.420,251.206 64.331 C 251.473 64.242,251.175 63.939,250.545 63.656 C 249.473 63.176,249.442 63.186,250.061 63.818 M342.980 63.580 C 342.771 63.788,341.340 64.023,339.800 64.101 L 337.000 64.243 340.300 64.322 C 343.001 64.386,343.600 64.291,343.600 63.800 C 343.600 63.100,343.497 63.063,342.980 63.580 M264.931 66.200 C 264.933 67.740,265.005 68.321,265.092 67.491 C 265.179 66.661,265.177 65.401,265.089 64.691 C 265.000 63.981,264.929 64.660,264.931 66.200 M152.909 67.200 C 152.909 68.190,152.987 68.595,153.082 68.100 C 153.178 67.605,153.178 66.795,153.082 66.300 C 152.987 65.805,152.909 66.210,152.909 67.200 M318.893 67.600 C 318.893 68.370,318.975 68.685,319.076 68.300 C 319.176 67.915,319.176 67.285,319.076 66.900 C 318.975 66.515,318.893 66.830,318.893 67.600 M61.711 67.667 C 60.945 68.432,60.759 68.468,60.122 67.967 C 59.463 67.449,59.448 67.461,59.949 68.100 C 60.691 69.046,61.263 68.963,62.119 67.787 C 63.005 66.569,62.853 66.525,61.711 67.667 M363.900 68.004 L 364.800 68.978 365.700 68.004 L 366.600 67.030 365.700 67.777 C 364.821 68.506,364.779 68.506,363.900 67.777 L 363.000 67.030 363.900 68.004 M195.400 67.984 C 194.381 68.231,194.310 68.322,194.931 68.592 C 195.416 68.803,195.882 68.689,196.317 68.255 C 196.677 67.895,196.888 67.621,196.786 67.647 C 196.684 67.673,196.060 67.825,195.400 67.984 M221.431 68.450 C 221.550 68.642,221.896 68.800,222.200 68.800 C 222.504 68.800,222.850 68.642,222.969 68.450 C 223.088 68.258,222.742 68.100,222.200 68.100 C 221.658 68.100,221.312 68.258,221.431 68.450 M202.040 68.867 C 201.957 70.249,202.471 70.800,203.843 70.800 C 204.589 70.800,205.200 70.663,205.200 70.496 C 205.200 70.329,204.625 70.194,203.923 70.196 C 202.900 70.199,202.589 70.000,202.362 69.200 C 202.202 68.631,202.063 68.488,202.040 68.867 M14.770 69.700 C 15.695 70.749,18.000 71.288,18.000 70.455 C 18.000 70.266,17.541 70.199,16.980 70.306 C 16.277 70.440,15.623 70.205,14.880 69.551 L 13.800 68.600 14.770 69.700 M102.400 69.162 C 102.400 71.017,115.669 71.718,117.656 69.968 L 118.600 69.136 117.611 69.768 C 115.947 70.831,104.456 70.684,103.275 69.584 C 102.794 69.136,102.400 68.946,102.400 69.162 M160.400 69.191 C 160.400 70.827,176.142 71.632,177.681 70.075 C 178.109 69.642,178.003 69.624,177.074 69.975 C 174.833 70.821,162.121 70.521,161.200 69.600 C 160.760 69.160,160.400 68.976,160.400 69.191 M26.744 69.968 C 27.625 70.744,28.167 70.800,34.800 70.800 C 41.433 70.800,41.975 70.744,42.856 69.968 L 43.800 69.136 42.811 69.768 C 42.006 70.282,40.516 70.400,34.800 70.400 C 29.084 70.400,27.594 70.282,26.789 69.768 L 25.800 69.136 26.744 69.968 M67.612 69.900 C 67.602 70.685,67.804 70.800,69.200 70.800 C 70.596 70.800,70.798 70.685,70.788 69.900 C 70.777 69.096,70.732 69.075,70.368 69.700 C 70.144 70.085,69.618 70.400,69.200 70.400 C 68.782 70.400,68.256 70.085,68.032 69.700 C 67.668 69.075,67.623 69.096,67.612 69.900 M152.061 69.700 C 151.726 70.037,149.512 70.272,145.281 70.420 L 139.000 70.640 145.056 70.720 C 150.558 70.793,151.198 70.728,152.056 70.013 C 152.575 69.581,152.901 69.221,152.780 69.213 C 152.659 69.206,152.336 69.425,152.061 69.700 M263.824 69.813 C 262.878 70.528,251.296 70.665,249.874 69.978 C 249.030 69.570,249.026 69.577,249.776 70.178 C 251.070 71.215,262.776 71.080,264.056 70.013 C 265.151 69.101,264.971 68.945,263.824 69.813 M307.109 69.675 C 306.907 70.282,294.007 70.453,292.600 69.867 L 291.800 69.535 292.600 70.189 C 294.208 71.505,308.845 70.712,307.515 69.382 C 307.388 69.254,307.205 69.386,307.109 69.675 M318.846 69.900 C 318.806 70.691,318.994 70.800,320.400 70.800 C 321.280 70.800,322.000 70.656,322.000 70.480 C 322.000 70.304,321.387 70.232,320.637 70.320 C 319.567 70.445,319.233 70.320,319.083 69.739 C 318.927 69.134,318.884 69.164,318.846 69.900 M382.925 70.100 C 383.595 70.714,384.482 70.790,390.144 70.719 L 396.600 70.638 389.960 70.419 C 386.308 70.299,383.059 70.020,382.741 69.800 C 382.423 69.580,382.506 69.715,382.925 70.100 M0.806 70.100 C 0.801 70.635,1.131 70.800,2.200 70.800 C 2.970 70.800,3.600 70.645,3.600 70.455 C 3.600 70.266,3.131 70.201,2.557 70.310 C 1.917 70.433,1.379 70.295,1.164 69.955 C 0.884 69.513,0.811 69.543,0.806 70.100 M79.376 70.178 C 80.517 71.092,92.683 71.092,93.824 70.178 C 94.574 69.577,94.570 69.570,93.726 69.978 C 92.577 70.533,80.623 70.533,79.474 69.978 C 78.630 69.570,78.626 69.577,79.376 70.178 M186.006 70.100 C 186.002 70.612,186.321 70.800,187.200 70.800 C 187.860 70.800,188.400 70.637,188.400 70.437 C 188.400 70.238,188.022 70.174,187.559 70.295 C 187.066 70.424,186.572 70.284,186.365 69.957 C 186.083 69.512,186.011 69.541,186.006 70.100 M279.600 70.044 C 279.600 70.315,279.057 70.424,278.200 70.324 C 277.430 70.234,276.800 70.304,276.800 70.480 C 276.800 70.656,277.520 70.800,278.400 70.800 C 279.556 70.800,280.000 70.633,280.000 70.200 C 280.000 69.870,279.910 69.600,279.800 69.600 C 279.690 69.600,279.600 69.800,279.600 70.044 M348.400 70.017 C 348.400 70.296,345.943 70.395,341.000 70.317 C 336.929 70.253,333.599 70.335,333.600 70.500 C 333.600 70.665,337.020 70.800,341.200 70.800 C 347.689 70.800,348.800 70.712,348.800 70.200 C 348.800 69.870,348.710 69.600,348.600 69.600 C 348.490 69.600,348.400 69.788,348.400 70.017 M212.800 70.500 C 212.800 70.665,213.340 70.800,214.000 70.800 C 214.660 70.800,215.200 70.665,215.200 70.500 C 215.200 70.335,214.660 70.200,214.000 70.200 C 213.340 70.200,212.800 70.335,212.800 70.500 M229.200 70.500 C 229.200 70.665,229.830 70.800,230.600 70.800 C 231.370 70.800,232.000 70.665,232.000 70.500 C 232.000 70.335,231.370 70.200,230.600 70.200 C 229.830 70.200,229.200 70.335,229.200 70.500 M304.972 79.328 C 304.861 79.619,304.823 81.644,304.888 83.828 L 305.006 87.800 305.203 83.299 C 305.398 78.845,305.366 78.301,304.972 79.328 M137.778 83.400 C 137.799 87.682,137.824 87.801,138.706 87.853 C 139.433 87.896,139.456 87.871,138.819 87.727 C 138.100 87.565,138.014 87.149,137.891 83.274 L 137.755 79.000 137.778 83.400 M249.978 80.700 L 248.600 82.200 250.100 80.822 C 251.496 79.538,251.784 79.200,251.478 79.200 C 251.412 79.200,250.737 79.875,249.978 80.700 M251.210 81.390 C 250.020 82.595,249.126 83.636,249.223 83.705 C 249.321 83.773,250.374 82.788,251.563 81.515 C 254.306 78.581,254.067 78.497,251.210 81.390 M313.337 82.200 C 313.339 83.960,313.409 84.630,313.493 83.689 C 313.578 82.749,313.577 81.309,313.491 80.489 C 313.405 79.670,313.336 80.440,313.337 82.200 M314.950 83.400 C 314.951 85.820,315.016 86.758,315.096 85.485 C 315.176 84.212,315.175 82.232,315.094 81.085 C 315.014 79.938,314.949 80.980,314.950 83.400 M245.278 81.800 C 246.909 83.537,247.176 84.063,247.306 85.800 L 247.456 87.800 247.528 85.785 C 247.598 83.839,247.528 83.702,245.500 81.785 L 243.400 79.800 245.278 81.800 M246.000 80.125 C 246.000 80.194,246.585 80.779,247.300 81.425 L 248.600 82.600 247.425 81.300 C 246.330 80.088,246.000 79.816,246.000 80.125 M139.761 81.600 C 139.796 82.501,139.986 82.612,141.675 82.721 C 142.706 82.787,143.623 83.057,143.713 83.321 C 143.803 83.584,143.858 83.530,143.835 83.200 C 143.805 82.777,143.240 82.564,141.921 82.479 C 140.357 82.378,140.022 82.214,139.886 81.479 C 139.751 80.752,139.729 80.773,139.761 81.600 M152.174 84.200 C 152.203 88.275,153.361 89.830,153.437 85.897 L 153.474 83.995 153.315 85.797 C 153.049 88.819,152.440 87.810,152.289 84.100 L 152.147 80.600 152.174 84.200 M173.600 81.133 C 173.600 81.439,172.598 81.627,170.700 81.678 L 167.800 81.757 170.560 81.898 C 173.117 82.029,174.548 81.615,173.873 80.940 C 173.723 80.790,173.600 80.877,173.600 81.133 M191.867 81.067 C 191.499 81.435,191.529 87.109,191.900 87.338 C 192.065 87.440,192.200 86.011,192.200 84.162 C 192.200 82.313,192.185 80.800,192.167 80.800 C 192.148 80.800,192.013 80.920,191.867 81.067 M205.773 84.168 C 205.794 86.984,205.926 87.770,206.400 87.898 C 206.826 88.014,206.860 87.961,206.518 87.718 C 206.228 87.512,205.977 86.019,205.890 83.987 L 205.746 80.600 205.773 84.168 M265.000 84.200 C 265.000 86.028,265.135 87.440,265.300 87.338 C 265.465 87.236,265.600 85.824,265.600 84.200 C 265.600 82.576,265.465 81.164,265.300 81.062 C 265.135 80.960,265.000 82.372,265.000 84.200 M272.134 83.600 C 272.134 85.250,272.205 85.925,272.291 85.100 C 272.378 84.275,272.378 82.925,272.291 82.100 C 272.205 81.275,272.134 81.950,272.134 83.600 M278.937 83.800 C 278.939 85.560,279.009 86.230,279.093 85.289 C 279.178 84.349,279.177 82.909,279.091 82.089 C 279.005 81.270,278.936 82.040,278.937 83.800 M284.574 84.195 C 284.595 87.093,284.716 87.799,285.200 87.834 C 285.530 87.858,285.582 87.803,285.315 87.712 C 285.001 87.605,284.781 86.326,284.689 84.074 L 284.547 80.600 284.574 84.195 M328.400 81.133 C 328.400 81.439,327.398 81.627,325.500 81.678 L 322.600 81.757 325.360 81.898 C 327.917 82.029,329.348 81.615,328.673 80.940 C 328.523 80.790,328.400 80.877,328.400 81.133 M332.501 81.200 C 332.611 81.609,333.226 81.815,334.431 81.847 C 336.187 81.893,336.188 81.892,334.605 81.717 C 333.728 81.620,332.859 81.329,332.675 81.070 C 332.444 80.747,332.390 80.788,332.501 81.200 M340.800 81.133 C 340.800 81.405,340.090 81.628,339.100 81.667 L 337.400 81.734 338.953 81.895 C 340.445 82.048,341.643 81.509,341.073 80.940 C 340.923 80.790,340.800 80.877,340.800 81.133 M375.374 84.195 C 375.395 87.093,375.516 87.799,376.000 87.834 C 376.330 87.858,376.382 87.803,376.115 87.712 C 375.801 87.605,375.581 86.326,375.489 84.074 L 375.347 80.600 375.374 84.195 M388.464 84.076 C 388.429 85.988,388.535 87.637,388.700 87.739 C 388.865 87.842,388.950 86.818,388.889 85.463 C 388.689 81.052,388.529 80.530,388.464 84.076 M180.150 82.187 C 180.026 82.510,180.017 83.005,180.131 83.287 C 180.244 83.569,180.351 83.404,180.368 82.919 C 180.397 82.124,180.645 82.024,182.900 81.896 L 185.400 81.754 182.887 81.677 C 180.996 81.619,180.319 81.745,180.150 82.187 M194.000 81.846 C 196.388 82.146,199.110 82.176,198.939 81.900 C 198.836 81.735,197.458 81.627,195.876 81.660 C 194.294 81.693,193.450 81.776,194.000 81.846 M214.932 81.897 C 217.058 82.029,217.216 82.102,216.732 82.721 C 216.253 83.332,216.270 83.345,216.900 82.851 C 218.122 81.893,217.670 81.598,215.100 81.676 L 212.600 81.751 214.932 81.897 M228.311 81.893 C 229.251 81.978,230.691 81.977,231.511 81.891 C 232.330 81.805,231.560 81.736,229.800 81.737 C 228.040 81.739,227.370 81.809,228.311 81.893 M260.678 81.897 L 263.556 82.034 263.708 83.717 L 263.860 85.400 263.930 83.500 L 264.000 81.600 260.900 81.679 L 257.800 81.759 260.678 81.897 M286.600 81.838 C 288.474 82.139,291.109 82.177,290.938 81.900 C 290.836 81.735,289.638 81.625,288.276 81.654 C 286.914 81.684,286.160 81.767,286.600 81.838 M306.435 81.700 C 306.528 81.755,307.233 82.340,308.002 83.000 L 309.400 84.200 308.225 82.900 C 307.579 82.185,306.874 81.600,306.658 81.600 C 306.443 81.600,306.343 81.645,306.435 81.700 M362.476 84.083 L 362.551 86.600 362.696 84.300 L 362.840 82.000 365.600 82.000 L 368.360 82.000 368.513 84.202 L 368.666 86.404 368.633 84.102 L 368.600 81.800 365.500 81.683 L 362.400 81.566 362.476 84.083 M377.400 81.838 C 379.274 82.139,381.909 82.177,381.738 81.900 C 381.636 81.735,380.438 81.625,379.076 81.654 C 377.714 81.684,376.960 81.767,377.400 81.838 M306.528 85.200 C 306.528 86.630,306.601 87.215,306.689 86.500 C 306.778 85.785,306.778 84.615,306.689 83.900 C 306.601 83.185,306.528 83.770,306.528 85.200 M171.200 83.933 C 171.200 84.205,170.490 84.428,169.500 84.467 L 167.800 84.534 169.353 84.695 C 170.845 84.848,172.043 84.309,171.473 83.740 C 171.323 83.590,171.200 83.677,171.200 83.933 M230.000 83.977 C 230.000 84.184,229.235 84.423,228.300 84.507 L 226.600 84.660 228.500 84.730 C 229.953 84.784,230.400 84.659,230.400 84.200 C 230.400 83.870,230.310 83.600,230.200 83.600 C 230.090 83.600,230.000 83.770,230.000 83.977 M326.000 83.933 C 326.000 84.205,325.290 84.428,324.300 84.467 L 322.600 84.534 324.153 84.695 C 325.645 84.848,326.843 84.309,326.273 83.740 C 326.123 83.590,326.000 83.677,326.000 83.933 M139.761 85.200 C 139.799 86.173,139.890 86.203,143.100 86.316 C 147.576 86.474,147.867 87.490,143.500 87.713 L 140.600 87.861 143.600 87.830 C 146.396 87.802,146.609 87.739,146.728 86.900 C 146.852 86.027,146.753 86.000,143.454 86.000 C 140.243 86.000,140.044 85.950,139.888 85.100 C 139.744 84.317,139.728 84.330,139.761 85.200 M180.267 85.067 C 180.120 85.213,180.000 85.830,180.000 86.437 C 180.000 87.076,179.744 87.621,179.392 87.730 C 178.965 87.862,178.995 87.900,179.492 87.856 C 179.981 87.813,180.239 87.393,180.325 86.497 C 180.487 84.829,181.660 84.753,183.378 86.300 L 184.600 87.400 183.425 86.100 C 182.339 84.898,180.904 84.429,180.267 85.067 M184.265 85.100 C 184.165 85.265,184.559 85.748,185.141 86.173 L 186.200 86.945 185.476 86.114 C 184.917 85.474,184.871 85.235,185.276 85.073 C 185.628 84.932,185.578 84.853,185.124 84.832 C 184.752 84.814,184.365 84.935,184.265 85.100 M290.000 85.151 C 290.000 85.344,290.315 85.749,290.700 86.051 C 291.325 86.542,291.345 86.530,290.883 85.939 C 290.461 85.399,290.461 85.240,290.883 85.070 C 291.212 84.939,291.145 84.852,290.700 84.832 C 290.315 84.814,290.000 84.958,290.000 85.151 M380.800 85.176 C 380.800 85.383,381.008 85.681,381.262 85.838 C 381.536 86.008,381.615 85.949,381.457 85.692 C 381.310 85.455,381.507 85.178,381.895 85.077 C 382.432 84.937,382.385 84.882,381.700 84.846 C 381.205 84.821,380.800 84.969,380.800 85.176 M291.921 86.867 C 292.363 87.431,292.332 87.562,291.721 87.720 C 291.152 87.868,291.190 87.917,291.900 87.954 C 292.977 88.009,293.061 87.503,292.100 86.749 C 291.473 86.257,291.455 86.270,291.921 86.867 M382.721 86.867 C 383.163 87.431,383.132 87.562,382.521 87.720 C 381.894 87.883,381.888 87.913,382.476 87.954 C 383.469 88.022,383.695 87.372,382.896 86.745 C 382.274 86.258,382.255 86.271,382.721 86.867 M185.141 87.701 C 185.343 87.903,185.933 88.001,186.454 87.919 C 187.255 87.793,187.198 87.737,186.087 87.552 C 185.293 87.421,184.919 87.479,185.141 87.701 M212.360 87.720 C 212.546 87.906,213.306 87.996,214.049 87.919 C 215.367 87.783,215.358 87.775,213.710 87.580 C 212.781 87.471,212.173 87.533,212.360 87.720 M225.555 87.717 C 225.731 87.892,227.388 87.980,229.237 87.914 L 232.600 87.794 228.918 87.597 C 226.893 87.489,225.380 87.543,225.555 87.717 M171.505 87.883 C 172.002 87.979,172.722 87.975,173.105 87.875 C 173.487 87.775,173.080 87.696,172.200 87.701 C 171.320 87.705,171.007 87.787,171.505 87.883 M217.505 87.883 C 218.002 87.979,218.722 87.975,219.105 87.875 C 219.487 87.775,219.080 87.696,218.200 87.701 C 217.320 87.705,217.007 87.787,217.505 87.883 M259.500 87.882 C 259.995 87.978,260.805 87.978,261.300 87.882 C 261.795 87.787,261.390 87.709,260.400 87.709 C 259.410 87.709,259.005 87.787,259.500 87.882 M273.300 87.876 C 273.685 87.976,274.315 87.976,274.700 87.876 C 275.085 87.775,274.770 87.693,274.000 87.693 C 273.230 87.693,272.915 87.775,273.300 87.876 M325.107 87.890 C 325.826 87.979,326.906 87.977,327.507 87.886 C 328.108 87.795,327.520 87.722,326.200 87.724 C 324.880 87.726,324.388 87.801,325.107 87.890 M363.500 87.882 C 363.995 87.978,364.805 87.978,365.300 87.882 C 365.795 87.787,365.390 87.709,364.400 87.709 C 363.410 87.709,363.005 87.787,363.500 87.882 " stroke="none" fill="#5a5757" fill-rule="evenodd"></path><path id="path2" d="M80.095 12.142 C 77.329 17.058,77.205 16.800,82.333 16.800 C 87.690 16.800,87.524 17.035,85.107 12.872 C 82.176 7.826,82.497 7.873,80.095 12.142 M80.000 19.950 C 80.000 20.480,87.060 26.406,87.349 26.118 C 87.487 25.980,87.600 24.457,87.600 22.733 L 87.600 19.600 83.800 19.600 C 81.710 19.600,80.000 19.757,80.000 19.950 M69.727 22.533 C 65.503 24.958,65.500 24.848,69.839 27.340 C 74.494 30.013,74.400 30.065,74.400 24.800 C 74.400 19.586,74.650 19.707,69.727 22.533 M90.400 24.557 C 90.400 29.742,90.529 29.821,94.921 27.338 C 99.291 24.868,99.290 24.980,95.003 22.531 C 90.146 19.756,90.400 19.644,90.400 24.557 M16.200 22.052 C 14.090 23.232,13.715 25.803,15.454 27.171 C 17.337 28.652,19.606 28.105,20.342 25.993 C 21.265 23.347,18.533 20.748,16.200 22.052 M32.769 22.769 C 31.326 24.212,31.261 25.697,32.582 27.018 C 34.483 28.919,38.000 27.601,38.000 24.987 C 38.000 23.705,36.011 21.600,34.800 21.600 C 34.326 21.600,33.412 22.126,32.769 22.769 M51.200 21.884 C 49.858 22.377,49.200 23.352,49.200 24.846 C 49.200 27.656,51.910 28.930,54.146 27.171 C 56.674 25.183,54.217 20.774,51.200 21.884 M77.463 23.870 C 77.318 24.015,77.200 25.453,77.200 27.067 L 77.200 30.000 80.576 30.000 C 84.881 30.000,84.964 29.773,81.699 26.931 C 78.110 23.807,77.771 23.562,77.463 23.870 M78.444 33.200 C 77.745 33.381,77.866 33.736,79.742 37.000 C 82.102 41.109,82.538 41.293,83.999 38.800 C 84.579 37.810,85.547 36.157,86.149 35.127 L 87.244 33.254 83.229 33.127 C 81.021 33.057,78.867 33.090,78.444 33.200 M1.280 56.480 C 0.717 57.043,0.602 69.068,1.151 69.935 C 1.338 70.229,1.920 70.409,2.445 70.335 C 3.382 70.203,3.402 70.112,3.513 65.500 C 3.640 60.185,3.734 60.071,6.200 62.232 C 12.406 67.672,16.074 70.445,16.906 70.327 C 18.075 70.161,18.557 56.699,17.409 56.259 C 15.848 55.660,15.600 56.305,15.600 60.976 C 15.600 66.889,15.778 66.805,11.366 62.979 C 10.111 61.891,8.673 60.726,8.171 60.391 C 7.669 60.056,6.559 59.136,5.706 58.346 C 3.263 56.086,2.146 55.614,1.280 56.480 M27.125 56.616 C 25.160 57.682,24.869 68.117,26.760 69.648 C 28.118 70.747,41.449 70.790,42.740 69.700 C 43.493 69.064,43.950 63.124,43.631 58.116 C 43.498 56.029,30.397 54.839,27.125 56.616 M52.100 56.265 C 51.727 56.415,51.600 58.234,51.600 63.433 L 51.600 70.400 52.557 70.400 C 53.846 70.400,54.000 69.822,54.000 64.967 C 54.000 59.887,54.015 59.885,57.559 64.600 C 59.130 66.690,60.575 68.400,60.770 68.400 C 61.172 68.400,63.472 65.671,65.821 62.407 L 67.400 60.213 67.600 64.807 C 67.813 69.709,68.012 70.400,69.210 70.400 C 70.480 70.400,70.721 69.254,70.778 62.921 C 70.854 54.400,69.667 53.747,65.200 59.850 C 63.990 61.503,62.596 63.338,62.103 63.927 L 61.205 64.997 60.284 63.999 C 59.778 63.449,58.633 62.010,57.740 60.800 C 54.579 56.518,53.541 55.683,52.100 56.265 M78.900 56.258 C 78.531 56.412,78.400 58.078,78.400 62.633 C 78.400 70.865,77.913 70.400,86.524 70.400 C 95.177 70.400,94.566 70.962,94.727 62.848 L 94.855 56.429 93.765 56.155 C 91.916 55.691,91.600 56.644,91.600 62.676 L 91.600 68.000 86.608 68.000 C 80.710 68.000,81.244 68.659,81.098 61.200 C 80.995 55.938,80.786 55.468,78.900 56.258 M104.113 56.606 C 102.532 57.713,102.544 62.872,104.129 63.892 C 104.388 64.058,107.120 64.286,110.200 64.397 L 115.800 64.600 115.800 66.200 L 115.800 67.800 110.653 67.912 C 106.277 68.008,105.435 67.927,105.031 67.374 C 104.351 66.444,102.632 66.773,102.477 67.863 C 102.179 69.955,103.575 70.400,110.431 70.400 C 118.339 70.400,118.628 70.250,118.545 66.194 C 118.465 62.302,118.363 62.242,111.487 62.000 L 105.800 61.800 105.669 60.418 C 105.473 58.366,106.254 58.000,110.823 58.000 C 114.186 58.000,114.836 58.113,115.795 58.867 C 117.715 60.378,119.175 58.739,117.448 57.011 C 116.186 55.749,105.787 55.433,104.113 56.606 M138.535 56.473 C 136.892 57.268,136.452 68.052,138.000 69.600 C 139.079 70.679,150.418 70.823,151.911 69.777 C 153.265 68.829,153.202 65.716,151.823 65.370 C 150.493 65.036,150.000 65.429,150.000 66.824 L 150.000 68.000 145.218 68.000 L 140.436 68.000 140.196 66.700 C 140.065 65.985,140.011 63.878,140.078 62.017 C 140.223 57.998,140.002 58.136,145.983 58.326 L 149.952 58.452 150.076 59.526 C 150.281 61.302,152.469 61.078,152.845 59.243 C 153.407 56.494,152.241 55.995,145.318 56.027 C 142.063 56.042,139.011 56.242,138.535 56.473 M161.382 56.982 C 159.981 58.383,159.858 68.258,161.224 69.624 C 162.237 70.637,176.676 70.686,177.681 69.680 C 178.746 68.614,178.385 57.680,177.256 56.765 C 175.622 55.442,162.746 55.617,161.382 56.982 M186.480 56.480 C 185.915 57.045,185.803 69.069,186.354 69.939 C 187.492 71.735,188.197 70.249,188.400 65.628 C 188.646 60.018,188.771 59.976,192.000 64.409 C 195.342 68.999,195.468 68.998,198.945 64.357 C 202.187 60.029,202.337 60.090,202.486 65.806 L 202.600 70.200 203.800 70.200 L 205.000 70.200 205.110 63.653 C 205.186 59.165,205.076 56.932,204.761 56.553 C 204.189 55.864,202.970 55.837,202.408 56.500 C 201.743 57.286,200.780 58.505,198.245 61.768 C 195.546 65.242,195.559 65.236,194.347 63.500 C 193.847 62.785,193.339 62.110,193.217 62.000 C 193.095 61.890,192.474 61.080,191.836 60.200 C 189.083 56.400,187.594 55.366,186.480 56.480 M213.290 56.336 C 212.902 56.582,212.806 58.281,212.890 63.430 L 213.000 70.200 214.000 70.200 L 215.000 70.200 215.113 65.471 C 215.245 59.951,215.331 59.899,218.142 63.626 C 222.368 69.229,222.118 69.168,224.980 65.286 C 226.068 63.809,227.418 62.092,227.980 61.472 L 229.000 60.343 229.200 65.272 L 229.400 70.200 230.600 70.200 L 231.800 70.200 231.909 63.330 C 232.053 54.314,231.272 53.743,226.783 59.575 C 225.582 61.135,224.126 62.978,223.547 63.672 L 222.493 64.934 221.147 63.404 C 220.406 62.562,219.045 60.867,218.122 59.637 C 215.258 55.819,214.703 55.439,213.290 56.336 M250.469 56.700 C 249.653 57.397,249.423 58.638,249.542 61.686 C 249.627 63.850,250.471 64.166,256.800 64.400 L 262.200 64.600 262.323 66.300 L 262.446 68.000 257.066 68.000 C 252.550 68.000,251.647 67.899,251.445 67.373 C 251.067 66.389,249.030 66.787,248.875 67.875 C 248.574 69.995,249.830 70.400,256.711 70.400 C 264.719 70.400,264.800 70.358,264.800 66.226 C 264.800 62.254,264.787 62.246,257.840 62.000 L 252.200 61.800 252.079 60.148 C 251.963 58.561,252.010 58.488,253.279 58.265 C 255.868 57.812,261.642 58.304,262.168 59.024 C 262.759 59.832,263.956 59.658,264.557 58.676 C 266.016 56.290,253.074 54.475,250.469 56.700 M270.900 56.265 C 270.018 56.621,270.340 57.138,273.500 60.424 L 276.600 63.649 276.800 66.925 C 276.999 70.186,277.005 70.201,278.157 70.332 C 279.699 70.508,279.985 69.930,280.004 66.600 L 280.020 63.800 283.208 60.400 C 286.548 56.838,286.795 56.278,285.115 56.078 C 284.297 55.980,283.540 56.525,281.346 58.789 L 278.600 61.622 275.839 58.811 C 273.208 56.133,272.338 55.685,270.900 56.265 M293.275 56.816 C 292.555 57.487,292.400 58.074,292.400 60.139 C 292.400 64.073,292.485 64.125,299.255 64.382 L 305.000 64.600 305.123 66.300 L 305.246 68.000 299.866 68.000 C 295.452 68.000,294.444 67.892,294.255 67.400 C 293.657 65.841,291.409 66.901,291.823 68.547 C 292.230 70.172,293.693 70.470,300.568 70.329 C 307.516 70.186,307.351 70.254,307.786 67.356 C 308.493 62.643,307.632 62.000,300.610 62.000 C 294.818 62.000,294.800 61.993,294.800 59.614 C 294.800 58.199,295.438 58.013,300.300 58.005 C 303.471 58.001,304.114 58.114,304.800 58.800 C 306.173 60.173,307.819 59.610,307.392 57.912 C 306.995 56.330,305.661 56.000,299.657 56.000 C 294.669 56.000,294.069 56.077,293.275 56.816 M312.900 56.265 C 310.844 57.095,312.700 58.290,316.191 58.384 C 319.149 58.464,318.817 57.787,318.978 64.054 C 319.054 66.994,319.135 69.636,319.158 69.925 C 319.186 70.271,319.644 70.408,320.500 70.325 L 321.800 70.200 322.000 64.400 L 322.200 58.600 324.600 58.497 C 328.523 58.329,330.442 57.116,328.167 56.243 C 327.414 55.954,313.621 55.974,312.900 56.265 M334.291 56.273 C 333.641 56.446,333.591 57.040,333.691 63.331 L 333.800 70.200 340.971 70.310 C 348.477 70.424,349.187 70.271,348.358 68.722 C 348.014 68.079,347.362 68.000,342.428 68.000 L 336.884 68.000 336.731 66.391 C 336.527 64.258,336.883 64.000,340.031 64.000 C 341.882 64.000,342.851 63.821,343.185 63.418 C 344.038 62.390,343.223 62.000,340.225 62.000 C 336.980 62.000,336.406 61.657,336.611 59.841 C 336.803 58.145,337.273 58.013,343.128 58.006 C 348.423 58.000,348.455 57.994,348.328 57.100 C 348.203 56.223,336.958 55.561,334.291 56.273 M355.867 56.267 C 355.720 56.413,355.600 59.665,355.600 63.493 L 355.600 70.453 356.700 70.327 L 357.800 70.200 358.000 65.200 L 358.200 60.200 361.225 64.200 C 364.923 69.089,364.682 69.088,368.378 64.215 L 371.400 60.229 371.600 65.215 L 371.800 70.200 373.100 70.325 L 374.400 70.451 374.400 63.452 C 374.400 53.573,373.724 53.449,367.400 62.163 C 366.960 62.769,366.270 63.655,365.868 64.131 L 365.136 64.997 363.868 63.566 C 363.170 62.778,362.294 61.699,361.919 61.167 C 361.022 59.893,359.176 57.626,358.300 56.722 C 357.598 55.998,356.366 55.767,355.867 56.267 M383.382 56.982 C 382.099 58.264,381.977 61.788,383.164 63.256 C 383.890 64.154,384.200 64.206,389.546 64.330 C 395.694 64.472,395.968 64.596,395.373 66.966 L 395.113 68.000 389.977 68.000 C 385.697 68.000,384.780 67.894,384.484 67.364 C 383.898 66.317,382.223 66.802,382.077 68.061 C 381.844 70.074,382.988 70.400,390.280 70.400 C 398.135 70.400,398.201 70.358,397.931 65.578 C 397.728 61.984,397.783 62.014,391.180 62.006 C 385.323 62.000,384.800 61.830,384.800 59.934 C 384.800 58.397,385.602 58.104,390.019 58.028 C 394.127 57.958,395.200 58.168,395.200 59.043 C 395.200 59.632,395.917 59.760,396.967 59.357 C 397.894 59.001,397.739 57.343,396.711 56.623 C 395.042 55.454,384.629 55.735,383.382 56.982 M38.500 58.397 L 40.800 58.400 40.800 62.567 C 40.800 68.438,41.285 68.000,34.784 68.000 C 28.460 68.000,28.784 68.207,28.823 64.185 C 28.882 58.100,29.015 57.933,33.600 58.228 C 35.030 58.319,37.235 58.396,38.500 58.397 M175.113 63.300 L 175.225 68.000 169.455 68.000 C 162.698 68.000,163.200 68.417,163.200 62.801 C 163.200 58.095,162.696 58.431,169.600 58.526 L 175.000 58.600 175.113 63.300 M237.630 62.163 C 236.538 63.479,237.259 64.193,239.805 64.317 C 242.652 64.455,244.093 63.727,243.358 62.523 C 242.761 61.545,238.373 61.269,237.630 62.163 " stroke="none" fill="#d02922" fill-rule="evenodd"></path><path id="path3" d="M104.400 3.725 C 104.400 3.794,104.985 4.379,105.700 5.025 L 107.000 6.200 105.825 4.900 C 104.730 3.688,104.400 3.416,104.400 3.725 M29.700 47.100 C 43.065 47.158,64.935 47.158,78.300 47.100 C 91.665 47.042,80.730 46.994,54.000 46.994 C 27.270 46.994,16.335 47.042,29.700 47.100 M0.578 56.113 C 0.469 56.396,0.430 59.861,0.490 63.813 L 0.600 71.000 2.000 71.052 L 3.400 71.104 2.100 70.927 L 0.800 70.749 0.800 63.375 L 0.800 56.000 1.924 56.000 C 2.721 56.000,3.858 56.695,5.824 58.387 C 7.351 59.699,8.753 60.779,8.941 60.787 C 9.128 60.794,7.874 59.630,6.154 58.200 C 3.036 55.607,1.056 54.867,0.578 56.113 M15.086 55.848 C 14.929 56.005,14.800 58.188,14.800 60.700 L 14.800 65.267 13.841 64.533 C 13.313 64.130,12.098 63.184,11.141 62.431 C 8.907 60.676,9.942 61.769,12.800 64.185 L 15.000 66.044 15.200 61.122 L 15.400 56.200 16.700 56.075 L 18.000 55.949 18.000 63.348 L 18.000 70.747 16.900 70.931 C 15.855 71.107,15.860 71.113,17.000 71.058 L 18.200 71.000 18.200 63.400 L 18.200 55.800 16.786 55.681 C 16.008 55.615,15.243 55.690,15.086 55.848 M27.211 56.045 C 26.229 56.437,25.618 57.084,25.606 57.744 C 25.603 57.934,25.944 57.664,26.364 57.144 C 27.103 56.230,27.364 56.193,34.464 55.979 L 41.800 55.757 35.000 55.704 C 31.260 55.675,27.755 55.828,27.211 56.045 M51.200 55.931 C 51.200 56.113,51.750 56.181,52.422 56.082 C 53.313 55.951,53.937 56.160,54.722 56.851 L 55.800 57.800 54.830 56.700 C 53.898 55.643,51.200 55.071,51.200 55.931 M65.165 59.300 C 63.593 61.335,62.059 63.353,61.757 63.784 C 61.419 64.265,61.076 64.419,60.866 64.184 C 60.678 63.973,59.499 62.495,58.245 60.900 C 56.992 59.305,55.882 58.000,55.780 58.000 C 55.678 58.000,56.793 59.530,58.258 61.400 C 61.495 65.533,60.756 65.645,64.731 60.422 C 67.770 56.427,68.190 56.031,69.531 55.890 L 71.000 55.734 69.513 55.667 C 68.085 55.603,67.910 55.749,65.165 59.300 M78.267 55.867 C 77.565 56.568,77.985 69.463,78.731 70.138 C 79.770 71.077,80.162 70.962,79.200 70.000 C 78.464 69.264,78.400 68.667,78.400 62.576 L 78.400 55.952 79.900 56.076 L 81.400 56.200 81.511 62.100 C 81.572 65.345,81.752 68.000,81.911 68.001 C 82.144 68.001,81.909 56.050,81.669 55.700 C 81.513 55.474,78.513 55.621,78.267 55.867 M91.406 56.077 C 91.083 56.982,90.985 68.001,91.300 68.001 C 91.465 68.000,91.600 65.300,91.600 62.000 L 91.600 56.000 93.200 56.000 L 94.800 56.000 94.800 62.426 C 94.800 66.116,94.620 69.225,94.378 69.726 C 93.967 70.578,93.972 70.580,94.587 69.811 C 95.116 69.150,95.201 67.947,95.109 62.411 L 95.000 55.800 93.296 55.677 C 92.163 55.595,91.530 55.729,91.406 56.077 M104.000 56.227 C 103.429 56.586,103.343 56.715,103.800 56.528 C 105.650 55.770,117.222 56.140,117.833 56.976 C 118.534 57.936,118.576 59.598,117.900 59.605 C 117.625 59.608,116.995 59.719,116.500 59.852 C 115.771 60.047,115.600 59.930,115.600 59.234 C 115.600 58.396,115.480 58.378,110.700 58.488 L 105.800 58.600 105.800 60.200 L 105.800 61.800 111.000 61.898 C 117.199 62.014,117.926 62.153,118.392 63.312 C 118.637 63.921,118.757 63.995,118.775 63.549 C 118.829 62.142,117.634 61.805,111.840 61.600 L 106.200 61.400 106.075 60.100 L 105.949 58.800 110.528 58.800 C 114.839 58.800,115.119 58.849,115.326 59.638 C 115.533 60.431,117.225 60.479,118.500 59.729 C 119.065 59.397,118.800 57.689,118.036 56.744 C 117.036 55.507,105.803 55.093,104.000 56.227 M138.526 56.003 C 137.020 56.609,136.796 57.655,136.880 63.674 L 136.959 69.400 137.180 63.319 C 137.455 55.708,136.928 56.232,144.465 56.070 C 150.597 55.939,152.559 56.258,152.938 57.447 C 153.047 57.791,153.094 57.740,153.056 57.318 C 152.916 55.766,141.647 54.746,138.526 56.003 M161.741 55.997 C 161.268 56.188,160.770 56.524,160.634 56.745 C 160.498 56.965,160.926 56.876,161.585 56.547 C 163.601 55.542,177.048 55.916,177.879 57.000 C 178.236 57.466,178.418 57.550,178.314 57.200 C 177.879 55.728,164.766 54.777,161.741 55.997 M185.778 56.113 C 185.669 56.396,185.635 59.861,185.700 63.813 L 185.820 71.000 185.910 63.500 L 186.000 56.000 187.322 56.000 C 188.489 56.000,188.893 56.328,190.783 58.814 C 191.959 60.362,193.112 61.746,193.345 61.890 C 193.577 62.033,192.628 60.677,191.234 58.875 C 188.670 55.562,186.426 54.425,185.778 56.113 M200.164 58.668 C 196.807 63.083,196.611 63.364,197.097 63.064 C 197.336 62.916,198.664 61.266,200.048 59.397 C 202.319 56.331,202.693 56.000,203.882 56.000 L 205.200 56.000 205.200 63.400 L 205.200 70.800 203.833 70.800 C 203.082 70.800,202.375 70.615,202.263 70.390 C 202.151 70.165,202.107 70.210,202.163 70.490 C 202.226 70.799,202.884 71.000,203.833 71.000 L 205.400 71.000 205.400 63.400 L 205.400 55.800 203.964 55.680 C 202.596 55.565,202.415 55.708,200.164 58.668 M212.578 56.113 C 212.469 56.396,212.430 59.861,212.490 63.813 L 212.600 71.000 214.000 71.000 L 215.400 71.000 215.600 66.221 L 215.800 61.442 217.133 63.021 L 218.467 64.600 217.165 62.700 C 215.324 60.011,215.200 60.207,215.200 65.800 L 215.200 70.800 214.000 70.800 L 212.800 70.800 212.800 63.400 L 212.800 56.000 214.120 56.000 C 214.846 56.000,215.692 56.225,216.001 56.500 C 216.478 56.925,216.482 56.896,216.032 56.300 C 215.409 55.477,212.875 55.340,212.578 56.113 M226.372 59.452 C 224.738 61.593,223.200 63.613,222.955 63.941 C 222.588 64.434,222.002 63.896,219.611 60.869 C 218.017 58.851,216.631 57.200,216.531 57.200 C 216.431 57.200,217.485 58.653,218.874 60.430 C 220.264 62.206,221.600 63.916,221.844 64.230 C 222.507 65.081,222.454 65.130,226.052 60.401 C 229.103 56.391,229.515 56.001,230.700 56.001 L 232.000 56.000 232.000 63.400 L 232.000 70.800 230.612 70.800 L 229.223 70.800 229.112 65.579 L 229.000 60.358 227.478 62.479 C 226.494 63.851,226.363 64.141,227.107 63.300 C 228.736 61.461,228.761 61.507,228.887 66.500 L 229.000 71.000 230.600 71.000 L 232.200 71.000 232.200 63.400 L 232.200 55.800 230.772 55.680 C 229.395 55.565,229.240 55.698,226.372 59.452 M250.404 56.101 C 249.855 56.387,249.346 56.937,249.272 57.324 C 249.165 57.875,249.356 57.808,250.150 57.014 C 251.424 55.740,261.530 55.452,263.800 56.625 C 264.956 57.223,264.974 57.219,264.287 56.523 C 263.358 55.581,252.061 55.238,250.404 56.101 M269.057 55.909 C 268.952 56.078,270.553 58.032,272.616 60.251 L 276.366 64.285 276.483 67.642 L 276.600 71.000 278.400 71.000 L 280.200 71.000 280.400 67.496 L 280.600 63.992 284.100 60.226 C 288.168 55.848,288.253 55.600,285.682 55.600 C 283.809 55.600,283.702 55.668,281.216 58.445 L 278.669 61.289 277.105 59.645 C 276.244 58.740,275.426 58.000,275.287 58.000 C 275.147 58.000,275.836 58.825,276.817 59.833 L 278.600 61.666 281.233 58.833 C 283.683 56.197,283.982 56.000,285.533 56.000 C 287.721 56.000,287.760 55.913,283.600 60.265 L 280.000 64.030 280.000 67.415 L 280.000 70.800 278.400 70.800 L 276.800 70.800 276.800 67.561 L 276.800 64.323 273.200 60.421 C 271.220 58.276,269.600 56.403,269.600 56.260 C 269.600 55.537,273.402 56.047,274.374 56.900 L 275.400 57.800 274.430 56.700 C 273.465 55.605,269.596 55.036,269.057 55.909 M300.240 55.960 C 304.473 56.128,306.477 56.364,306.940 56.749 C 307.762 57.433,307.833 59.600,307.033 59.600 C 306.721 59.600,306.197 59.703,305.869 59.829 C 305.490 59.974,305.175 59.750,305.005 59.217 C 304.622 58.009,295.102 58.117,294.869 59.332 C 294.388 61.844,294.735 62.000,300.808 62.000 C 305.867 62.000,306.476 62.076,307.200 62.800 C 307.640 63.240,308.000 63.448,308.000 63.262 C 308.000 61.999,306.487 61.622,300.982 61.512 L 295.400 61.400 295.275 60.100 L 295.149 58.800 299.728 58.800 C 304.039 58.800,304.319 58.849,304.526 59.638 C 304.713 60.356,304.935 60.435,306.072 60.191 C 307.897 59.799,308.000 59.706,308.000 58.438 C 308.000 56.154,306.989 55.804,300.259 55.760 L 294.200 55.720 300.240 55.960 M311.756 56.171 C 311.012 58.111,311.642 58.594,315.074 58.716 C 317.765 58.811,318.379 58.953,318.527 59.516 C 318.658 60.012,318.720 59.952,318.754 59.300 C 318.798 58.433,318.674 58.400,315.373 58.400 L 311.947 58.400 312.073 57.300 L 312.200 56.200 320.800 55.988 L 329.400 55.776 320.687 55.688 C 313.451 55.615,311.938 55.697,311.756 56.171 M333.378 56.113 C 333.269 56.396,333.230 59.861,333.290 63.813 L 333.400 71.000 341.200 71.000 L 349.000 71.000 349.131 69.851 C 349.203 69.219,349.105 68.545,348.912 68.352 C 348.710 68.150,348.630 68.598,348.724 69.400 L 348.888 70.800 341.244 70.800 L 333.600 70.800 333.600 63.383 L 333.600 55.967 341.200 56.083 C 345.381 56.147,348.801 56.065,348.800 55.900 C 348.800 55.333,333.597 55.543,333.378 56.113 M355.200 55.920 C 355.200 56.096,355.801 56.169,356.537 56.083 C 357.771 55.939,358.033 56.128,359.971 58.564 C 361.125 60.014,362.171 61.200,362.296 61.200 C 362.422 61.200,362.260 60.885,361.938 60.500 C 361.616 60.115,360.581 58.855,359.639 57.700 C 358.039 55.739,355.200 54.600,355.200 55.920 M370.524 57.500 C 368.342 60.173,366.723 62.400,366.962 62.400 C 367.073 62.400,368.273 60.943,369.629 59.162 C 371.965 56.093,372.165 55.932,373.447 56.081 C 374.191 56.168,374.800 56.096,374.800 55.920 C 374.800 54.679,371.974 55.724,370.524 57.500 M383.726 56.003 C 381.467 56.913,381.257 64.400,383.491 64.400 C 383.619 64.400,383.426 64.071,383.062 63.669 C 382.589 63.146,382.400 62.196,382.400 60.345 C 382.400 56.256,382.426 56.241,389.667 55.975 L 395.800 55.751 390.200 55.701 C 387.120 55.673,384.207 55.809,383.726 56.003 M42.856 56.765 C 43.770 57.505,43.800 57.713,43.800 63.400 C 43.800 69.087,43.770 69.295,42.856 70.035 C 41.944 70.773,42.105 71.103,43.075 70.486 C 45.479 68.957,44.749 56.050,42.256 56.006 C 42.066 56.003,42.336 56.344,42.856 56.765 M292.893 56.334 C 292.252 56.741,291.586 59.022,291.647 60.597 C 291.676 61.354,291.825 60.985,292.049 59.600 C 292.281 58.165,292.697 57.157,293.246 56.700 C 294.093 55.996,293.839 55.734,292.893 56.334 M396.600 56.478 C 397.040 56.727,397.532 57.127,397.694 57.366 C 397.896 57.665,397.990 57.649,397.994 57.314 C 397.997 57.047,397.652 56.642,397.226 56.414 C 396.174 55.851,395.597 55.909,396.600 56.478 M160.160 63.400 C 160.161 66.700,160.222 67.997,160.298 66.282 C 160.373 64.567,160.372 61.867,160.297 60.282 C 160.221 58.697,160.159 60.100,160.160 63.400 M264.854 58.500 C 264.825 59.105,264.575 59.602,264.300 59.605 C 264.025 59.608,263.395 59.719,262.900 59.852 C 262.171 60.047,262.000 59.930,262.000 59.234 C 262.000 58.396,261.880 58.378,257.100 58.488 L 252.200 58.600 252.200 60.200 L 252.200 61.800 258.133 62.000 C 263.412 62.178,264.129 62.286,264.633 62.976 C 264.945 63.404,265.200 63.561,265.200 63.325 C 265.200 62.149,263.778 61.796,258.240 61.600 L 252.600 61.400 252.475 60.100 L 252.349 58.800 256.928 58.800 C 261.239 58.800,261.519 58.849,261.726 59.638 C 262.154 61.276,265.407 60.026,265.088 58.346 C 264.924 57.478,264.904 57.490,264.854 58.500 M178.558 63.400 C 178.558 66.480,178.621 67.687,178.697 66.082 C 178.773 64.478,178.773 61.958,178.696 60.482 C 178.619 59.007,178.557 60.320,178.558 63.400 M398.046 58.510 C 398.021 58.900,397.538 59.395,396.974 59.610 C 395.538 60.156,395.322 60.109,395.084 59.200 C 394.889 58.455,394.538 58.400,390.014 58.400 L 385.154 58.400 385.277 60.100 L 385.400 61.800 391.268 62.000 C 398.147 62.234,397.738 61.984,398.032 66.132 L 398.265 69.400 398.332 66.300 C 398.433 61.700,398.281 61.600,391.200 61.600 L 385.600 61.600 385.600 60.200 L 385.600 58.800 390.200 58.800 C 394.614 58.800,394.800 58.834,394.800 59.645 C 394.800 60.403,394.953 60.461,396.300 60.213 C 398.109 59.881,398.536 59.522,398.284 58.542 C 398.110 57.867,398.089 57.864,398.046 58.510 M34.687 58.693 L 40.373 58.822 40.509 63.111 L 40.645 67.400 40.622 63.000 L 40.600 58.600 34.800 58.582 L 29.000 58.565 34.687 58.693 M140.679 58.654 C 140.301 59.032,140.321 68.000,140.700 68.001 C 140.865 68.001,140.944 65.931,140.876 63.401 L 140.752 58.800 145.176 58.800 L 149.600 58.800 149.600 60.200 C 149.600 61.399,149.729 61.593,150.500 61.554 C 151.139 61.521,151.204 61.456,150.723 61.329 C 150.305 61.218,150.000 60.664,149.923 59.875 L 149.800 58.600 145.379 58.488 C 142.947 58.426,140.832 58.501,140.679 58.654 M153.254 59.471 C 153.218 60.314,152.965 60.803,152.500 60.924 C 151.844 61.096,151.845 61.110,152.513 61.154 C 153.354 61.208,153.733 60.421,153.486 59.129 C 153.348 58.405,153.297 58.481,153.254 59.471 M163.877 58.656 C 163.501 59.033,163.522 68.000,163.900 68.001 C 164.065 68.001,164.144 65.931,164.076 63.401 L 163.952 58.800 169.376 58.800 L 174.800 58.800 174.800 63.171 C 174.800 66.997,174.713 67.564,174.100 67.724 C 173.580 67.860,173.635 67.919,174.313 67.954 C 175.220 68.000,175.225 67.971,175.113 63.300 L 175.000 58.600 169.577 58.489 C 166.595 58.428,164.030 58.503,163.877 58.656 M248.954 60.712 C 249.027 62.571,249.248 63.403,249.804 63.912 C 250.518 64.566,250.529 64.564,250.016 63.884 C 249.719 63.490,249.336 62.050,249.165 60.684 L 248.854 58.200 248.954 60.712 M322.267 58.667 C 322.120 58.813,322.000 61.592,322.000 64.843 L 322.000 70.752 320.597 70.918 L 319.193 71.084 320.697 71.042 L 322.200 71.000 322.310 64.915 L 322.421 58.831 325.910 58.698 L 329.400 58.565 325.967 58.482 C 324.078 58.437,322.413 58.520,322.267 58.667 M336.877 60.100 L 337.000 61.800 340.276 61.916 L 343.552 62.032 343.712 63.316 C 343.867 64.561,343.874 64.554,343.936 63.100 L 344.000 61.600 340.600 61.600 L 337.200 61.600 337.200 60.211 L 337.200 58.821 343.100 58.699 L 349.000 58.577 342.877 58.488 L 336.754 58.400 336.877 60.100 M102.493 60.400 C 102.493 61.170,102.575 61.485,102.676 61.100 C 102.776 60.715,102.776 60.085,102.676 59.700 C 102.575 59.315,102.493 59.630,102.493 60.400 M28.901 61.800 C 28.905 62.680,28.987 62.993,29.083 62.495 C 29.179 61.998,29.175 61.278,29.075 60.895 C 28.975 60.513,28.896 60.920,28.901 61.800 M66.469 61.847 L 65.537 63.285 66.556 62.542 C 67.116 62.134,67.581 61.485,67.587 61.100 C 67.604 60.151,67.539 60.195,66.469 61.847 M358.000 61.200 C 358.000 61.713,358.105 62.028,358.234 61.899 C 358.363 61.770,359.013 62.235,359.678 62.932 C 360.965 64.281,360.996 64.331,358.123 60.433 C 358.055 60.342,358.000 60.687,358.000 61.200 M369.704 62.882 C 367.694 65.630,367.745 66.010,369.769 63.360 L 371.174 61.519 371.287 66.260 L 371.400 71.000 373.103 71.039 L 374.806 71.078 373.214 70.917 L 371.623 70.755 371.511 65.659 L 371.400 60.564 369.704 62.882 M3.686 65.900 L 3.772 71.000 3.899 66.300 C 3.968 63.715,4.131 61.600,4.261 61.600 C 4.391 61.600,6.584 63.355,9.136 65.500 C 14.941 70.379,15.600 70.905,15.600 70.660 C 15.600 70.392,4.173 60.800,3.853 60.800 C 3.714 60.800,3.639 63.095,3.686 65.900 M54.086 65.900 L 54.172 71.000 54.305 66.200 L 54.438 61.400 55.657 62.800 L 56.875 64.200 55.738 62.509 C 54.092 60.061,53.991 60.268,54.086 65.900 M188.667 61.067 C 188.520 61.213,188.400 63.450,188.400 66.037 C 188.400 70.172,188.315 70.766,187.700 70.948 C 187.155 71.108,187.177 71.136,187.800 71.073 C 188.538 70.997,188.615 70.622,188.800 66.196 L 189.000 61.400 191.949 65.300 C 194.985 69.315,195.524 69.700,196.432 68.500 C 196.882 67.904,196.878 67.875,196.401 68.300 C 195.410 69.184,195.015 68.870,192.000 64.800 C 190.370 62.600,189.014 60.800,188.985 60.800 C 188.957 60.800,188.813 60.920,188.667 61.067 M201.006 61.888 L 200.304 63.000 201.230 62.111 C 201.739 61.622,202.055 61.122,201.932 60.999 C 201.809 60.876,201.392 61.276,201.006 61.888 M236.800 63.200 L 236.800 64.800 240.400 64.800 L 244.000 64.800 244.000 63.200 C 244.000 61.931,243.855 61.607,243.300 61.632 C 242.882 61.650,242.801 61.744,243.100 61.865 C 243.375 61.976,243.600 62.592,243.600 63.233 L 243.600 64.400 240.400 64.400 L 237.200 64.400 237.200 63.233 C 237.200 62.592,237.425 61.976,237.700 61.865 C 237.999 61.744,237.918 61.650,237.500 61.632 C 236.945 61.607,236.800 61.931,236.800 63.200 M363.596 63.100 C 365.086 65.093,365.166 65.111,366.158 63.687 L 366.915 62.600 365.963 63.506 L 365.010 64.412 363.667 62.906 L 362.324 61.400 363.596 63.100 M194.415 63.500 C 195.491 64.996,195.706 65.059,196.432 64.100 C 196.882 63.505,196.878 63.475,196.402 63.899 C 195.945 64.306,195.623 64.195,194.660 63.299 L 193.479 62.200 194.415 63.500 M198.941 64.700 C 198.336 65.525,197.562 66.557,197.221 66.993 C 196.662 67.706,196.662 67.738,197.219 67.311 C 197.929 66.767,200.554 63.200,200.245 63.200 C 200.133 63.200,199.546 63.875,198.941 64.700 M28.914 65.400 C 28.917 66.500,28.995 66.903,29.087 66.295 C 29.179 65.686,29.177 64.786,29.082 64.295 C 28.987 63.803,28.911 64.300,28.914 65.400 M63.309 66.184 C 60.982 69.333,60.904 69.340,58.835 66.600 C 57.922 65.390,57.081 64.400,56.967 64.400 C 56.735 64.400,58.524 66.908,59.748 68.300 C 60.913 69.625,61.218 69.471,63.516 66.400 C 64.669 64.860,65.523 63.600,65.415 63.600 C 65.307 63.600,64.360 64.763,63.309 66.184 M308.070 66.074 C 308.031 67.325,307.821 68.820,307.601 69.397 C 307.356 70.043,307.350 70.355,307.586 70.209 C 308.140 69.866,308.480 67.662,308.297 65.591 C 308.149 63.905,308.136 63.933,308.070 66.074 M109.800 64.777 L 115.400 65.000 115.532 66.157 C 115.606 66.803,115.429 67.478,115.132 67.687 C 114.710 67.983,114.724 68.027,115.200 67.897 C 115.603 67.787,115.800 67.220,115.800 66.167 L 115.800 64.600 110.000 64.577 L 104.200 64.554 109.800 64.777 M118.909 66.000 C 118.909 66.990,118.987 67.395,119.082 66.900 C 119.178 66.405,119.178 65.595,119.082 65.100 C 118.987 64.605,118.909 65.010,118.909 66.000 M253.282 64.696 C 254.758 64.773,257.278 64.773,258.882 64.697 C 260.487 64.621,259.280 64.558,256.200 64.558 C 253.120 64.557,251.807 64.619,253.282 64.696 M296.500 64.697 C 297.985 64.774,300.415 64.774,301.900 64.697 C 303.385 64.620,302.170 64.557,299.200 64.557 C 296.230 64.557,295.015 64.620,296.500 64.697 M336.832 66.100 C 336.814 67.145,336.944 68.000,337.120 68.000 C 337.296 68.000,337.372 67.325,337.291 66.500 C 337.061 64.178,336.866 64.009,336.832 66.100 M361.218 64.978 C 361.823 66.152,364.517 69.200,364.950 69.200 C 365.223 69.200,366.029 68.345,366.741 67.300 L 368.036 65.400 366.417 67.200 L 364.798 69.000 363.899 67.980 C 363.405 67.418,362.550 66.418,362.000 65.757 C 361.450 65.096,361.098 64.746,361.218 64.978 M389.440 64.694 L 394.882 64.823 394.730 66.412 C 394.647 67.285,394.729 68.000,394.912 68.000 C 395.096 68.000,395.191 67.235,395.123 66.300 L 395.000 64.600 389.499 64.582 L 383.999 64.565 389.440 64.694 M149.600 66.167 C 149.600 66.918,149.375 67.624,149.100 67.735 C 148.801 67.856,148.882 67.950,149.300 67.968 C 149.837 67.993,150.000 67.680,150.000 66.628 C 150.000 65.523,150.175 65.222,150.900 65.082 C 151.672 64.934,151.643 64.901,150.700 64.854 C 149.704 64.805,149.600 64.929,149.600 66.167 M219.990 66.941 C 222.035 69.649,222.286 69.684,224.000 67.500 C 226.200 64.697,226.256 64.613,225.714 64.938 C 225.447 65.098,224.652 66.033,223.946 67.015 C 223.241 67.997,222.455 68.800,222.200 68.800 C 221.945 68.800,221.159 67.997,220.454 67.015 C 219.748 66.033,218.972 65.106,218.728 64.956 C 218.484 64.805,219.052 65.698,219.990 66.941 M262.000 66.172 C 262.000 67.277,261.825 67.578,261.100 67.718 C 260.328 67.866,260.357 67.899,261.300 67.946 C 262.326 67.996,262.400 67.892,262.400 66.400 C 262.400 65.520,262.310 64.800,262.200 64.800 C 262.090 64.800,262.000 65.417,262.000 66.172 M304.800 66.167 C 304.800 66.918,304.575 67.624,304.300 67.735 C 304.001 67.856,304.082 67.950,304.500 67.968 C 305.055 67.993,305.200 67.669,305.200 66.400 C 305.200 65.520,305.110 64.800,305.000 64.800 C 304.890 64.800,304.800 65.415,304.800 66.167 M152.500 65.452 C 153.626 65.784,153.445 68.592,152.218 69.818 C 151.154 70.883,151.384 71.139,152.604 70.247 C 153.745 69.413,153.741 65.459,152.600 65.334 C 151.983 65.266,151.960 65.293,152.500 65.452 M265.301 66.600 C 265.305 67.480,265.387 67.793,265.483 67.295 C 265.579 66.798,265.575 66.078,265.475 65.695 C 265.375 65.313,265.296 65.720,265.301 66.600 M250.000 66.400 C 249.176 66.664,249.141 66.726,249.800 66.754 C 250.240 66.773,250.870 66.613,251.200 66.400 C 251.901 65.947,251.414 65.947,250.000 66.400 M105.084 67.200 C 105.199 67.640,105.435 68.000,105.609 68.000 C 105.783 68.000,105.831 67.640,105.716 67.200 C 105.601 66.760,105.365 66.400,105.191 66.400 C 105.017 66.400,104.969 66.760,105.084 67.200 M294.284 67.200 C 294.399 67.640,294.787 67.986,295.147 67.968 C 295.561 67.948,295.617 67.863,295.300 67.735 C 295.025 67.624,294.800 67.278,294.800 66.967 C 294.800 66.655,294.637 66.400,294.437 66.400 C 294.238 66.400,294.169 66.760,294.284 67.200 M381.646 66.763 C 380.668 67.383,382.073 70.800,383.306 70.800 C 383.517 70.800,383.303 70.485,382.831 70.100 C 381.548 69.054,381.531 67.134,382.800 66.768 C 383.607 66.535,383.645 66.473,383.000 66.446 C 382.560 66.427,381.951 66.570,381.646 66.763 M102.093 68.000 C 102.093 68.770,102.175 69.085,102.276 68.700 C 102.376 68.315,102.376 67.685,102.276 67.300 C 102.175 66.915,102.093 67.230,102.093 68.000 M248.446 67.811 C 248.397 69.095,249.340 70.800,250.099 70.800 C 250.349 70.800,250.225 70.560,249.824 70.267 C 249.424 69.974,248.960 69.029,248.794 68.167 C 248.521 66.750,248.488 66.716,248.446 67.811 M291.246 67.824 C 291.221 68.496,291.483 69.396,291.830 69.824 C 292.176 70.251,292.321 70.336,292.153 70.014 C 291.984 69.691,291.721 68.791,291.569 68.014 C 291.293 66.608,291.292 66.607,291.246 67.824 M390.905 67.887 C 391.514 67.979,392.414 67.977,392.905 67.882 C 393.397 67.787,392.900 67.711,391.800 67.714 C 390.700 67.717,390.297 67.795,390.905 67.887 M118.400 68.977 C 118.400 69.295,118.000 69.835,117.511 70.177 C 117.022 70.520,116.829 70.800,117.082 70.800 C 117.727 70.800,118.800 69.657,118.800 68.971 C 118.800 68.657,118.710 68.400,118.600 68.400 C 118.490 68.400,118.400 68.660,118.400 68.977 M25.600 69.152 C 25.600 69.542,27.155 70.998,27.323 70.764 C 27.387 70.674,27.026 70.201,26.520 69.714 C 26.014 69.227,25.600 68.974,25.600 69.152 M264.114 69.880 C 263.627 70.386,263.374 70.800,263.552 70.800 C 263.942 70.800,265.398 69.245,265.164 69.077 C 265.074 69.013,264.601 69.374,264.114 69.880 M32.118 71.098 C 33.833 71.173,36.533 71.172,38.118 71.097 C 39.703 71.021,38.300 70.959,35.000 70.960 C 31.700 70.961,30.403 71.022,32.118 71.098 M68.500 71.076 C 68.885 71.176,69.515 71.176,69.900 71.076 C 70.285 70.975,69.970 70.893,69.200 70.893 C 68.430 70.893,68.115 70.975,68.500 71.076 M84.100 71.097 C 85.585 71.174,88.015 71.174,89.500 71.097 C 90.985 71.020,89.770 70.957,86.800 70.957 C 83.830 70.957,82.615 71.020,84.100 71.097 M108.117 71.097 C 109.611 71.174,111.951 71.174,113.317 71.096 C 114.682 71.018,113.460 70.955,110.600 70.955 C 107.740 70.956,106.622 71.020,108.117 71.097 M142.700 71.096 C 144.075 71.174,146.325 71.174,147.700 71.096 C 149.075 71.018,147.950 70.954,145.200 70.954 C 142.450 70.954,141.325 71.018,142.700 71.096 M166.100 71.097 C 167.805 71.172,170.595 71.172,172.300 71.097 C 174.005 71.022,172.610 70.961,169.200 70.961 C 165.790 70.961,164.395 71.022,166.100 71.097 M254.100 71.097 C 255.585 71.174,258.015 71.174,259.500 71.097 C 260.985 71.020,259.770 70.957,256.800 70.957 C 253.830 70.957,252.615 71.020,254.100 71.097 M297.300 71.097 C 298.785 71.174,301.215 71.174,302.700 71.097 C 304.185 71.020,302.970 70.957,300.000 70.957 C 297.030 70.957,295.815 71.020,297.300 71.097 M387.317 71.097 C 388.811 71.174,391.151 71.174,392.517 71.096 C 393.882 71.018,392.660 70.955,389.800 70.955 C 386.940 70.956,385.822 71.020,387.317 71.097 M139.500 79.095 C 140.655 79.176,142.545 79.176,143.700 79.095 C 144.855 79.014,143.910 78.948,141.600 78.948 C 139.290 78.948,138.345 79.014,139.500 79.095 M146.390 79.063 C 147.824 79.774,146.619 80.376,143.500 80.508 L 140.200 80.647 143.600 80.623 C 146.676 80.602,147.000 80.527,147.000 79.833 C 147.000 79.412,146.770 79.020,146.490 78.963 C 146.210 78.907,146.165 78.952,146.390 79.063 M242.800 79.176 C 242.800 79.383,243.008 79.681,243.262 79.838 C 243.548 80.015,243.615 79.948,243.438 79.662 C 242.769 78.579,245.406 79.240,246.781 80.500 L 248.200 81.800 246.822 80.300 C 245.493 78.854,242.800 78.102,242.800 79.176 M250.370 79.900 L 249.400 81.000 250.400 80.151 C 250.950 79.684,251.670 79.203,252.000 79.082 C 252.514 78.895,252.509 78.859,251.970 78.832 C 251.623 78.814,250.903 79.295,250.370 79.900 M304.572 79.328 C 304.076 80.622,304.597 87.734,305.200 87.898 C 305.671 88.026,305.687 87.981,305.273 87.690 C 304.879 87.413,304.778 86.246,304.873 83.059 C 304.999 78.820,304.959 78.320,304.572 79.328 M159.267 82.100 L 159.334 83.800 159.491 82.300 C 159.827 79.095,160.761 80.553,160.902 84.500 L 161.034 88.200 161.117 84.300 L 161.200 80.400 160.200 80.400 C 159.280 80.400,159.205 80.535,159.267 82.100 M166.000 84.200 C 166.000 86.290,166.135 88.000,166.300 88.001 C 166.465 88.001,166.542 86.388,166.472 84.416 L 166.344 80.830 170.272 80.699 L 174.200 80.567 170.100 80.484 L 166.000 80.400 166.000 84.200 M178.483 84.300 L 178.566 88.200 178.698 84.515 L 178.830 80.830 182.515 80.698 L 186.200 80.566 182.300 80.483 L 178.400 80.400 178.483 84.300 M194.100 80.694 C 195.145 80.776,196.855 80.776,197.900 80.694 C 198.945 80.612,198.090 80.544,196.000 80.544 C 193.910 80.544,193.055 80.612,194.100 80.694 M205.467 80.667 C 205.099 81.035,205.129 87.509,205.500 87.740 C 205.665 87.842,205.742 86.323,205.672 84.363 C 205.549 80.948,205.579 80.800,206.400 80.800 C 207.222 80.800,207.252 80.947,207.128 84.401 C 207.058 86.381,207.135 88.001,207.300 88.001 C 207.465 88.000,207.600 86.290,207.600 84.200 C 207.600 80.402,206.897 79.237,205.467 80.667 M212.667 80.667 C 212.520 80.813,212.403 81.128,212.406 81.367 C 212.410 81.636,212.529 81.616,212.720 81.316 C 212.914 81.010,214.421 80.783,216.814 80.699 L 220.600 80.566 216.767 80.483 C 214.658 80.437,212.813 80.520,212.667 80.667 M225.080 80.653 C 224.703 81.031,224.721 87.503,225.100 87.740 C 225.265 87.842,225.342 86.323,225.272 84.363 L 225.143 80.800 228.942 80.800 C 232.215 80.800,232.770 80.897,232.948 81.500 C 233.108 82.045,233.136 82.023,233.072 81.400 C 232.989 80.580,225.823 79.910,225.080 80.653 M259.113 80.695 C 260.276 80.776,262.076 80.776,263.113 80.693 C 264.151 80.611,263.200 80.545,261.000 80.546 C 258.800 80.547,257.951 80.614,259.113 80.695 M270.480 83.673 L 270.561 87.000 270.697 83.900 C 270.890 79.509,272.280 79.202,272.509 83.500 L 272.652 86.200 272.626 83.400 C 272.600 80.650,272.580 80.598,271.500 80.473 L 270.400 80.347 270.480 83.673 M277.279 83.473 L 277.359 86.600 277.497 83.700 C 277.698 79.488,279.087 79.334,279.309 83.500 L 279.452 86.200 279.426 83.400 C 279.400 80.650,279.380 80.598,278.300 80.473 L 277.200 80.347 277.279 83.473 M286.313 80.695 C 287.476 80.776,289.276 80.776,290.313 80.693 C 291.351 80.611,290.400 80.545,288.200 80.546 C 286.000 80.547,285.151 80.614,286.313 80.695 M320.800 84.200 C 320.800 86.290,320.935 88.000,321.100 88.001 C 321.265 88.001,321.342 86.388,321.272 84.416 L 321.144 80.830 325.072 80.699 L 329.000 80.567 324.900 80.484 L 320.800 80.400 320.800 84.200 M334.500 80.696 C 335.765 80.775,337.835 80.775,339.100 80.696 C 340.365 80.616,339.330 80.551,336.800 80.551 C 334.270 80.551,333.235 80.616,334.500 80.696 M344.400 80.700 C 344.400 80.865,344.923 81.000,345.562 81.000 C 346.201 81.000,346.640 80.865,346.538 80.700 C 346.436 80.535,345.913 80.400,345.376 80.400 C 344.839 80.400,344.400 80.535,344.400 80.700 M355.878 80.679 C 356.488 80.798,356.690 81.056,356.540 81.525 C 356.362 82.083,356.396 82.099,356.736 81.619 C 357.285 80.844,356.948 80.388,355.876 80.454 L 355.000 80.509 355.878 80.679 M365.600 80.778 L 369.800 81.000 369.800 84.182 C 369.800 87.235,369.760 87.375,368.800 87.642 C 367.962 87.875,367.933 87.927,368.620 87.960 C 370.010 88.028,370.400 87.203,370.400 84.200 C 370.400 80.458,370.300 80.383,365.420 80.478 L 361.400 80.557 365.600 80.778 M375.060 80.700 C 374.958 80.865,376.162 80.951,377.737 80.891 C 382.610 80.704,383.174 80.531,379.124 80.464 C 376.992 80.429,375.163 80.535,375.060 80.700 M388.284 80.650 C 387.904 81.030,387.919 87.502,388.300 87.740 C 388.465 87.842,388.542 86.323,388.472 84.363 C 388.350 80.985,388.386 80.800,389.172 80.800 C 389.825 80.800,390.000 81.053,390.000 82.000 C 390.000 82.660,390.157 83.200,390.349 83.200 C 390.542 83.200,390.580 82.615,390.435 81.900 C 390.179 80.641,388.986 79.947,388.284 80.650 M393.857 80.707 C 393.753 80.876,394.372 80.948,395.234 80.865 C 396.095 80.783,396.800 80.645,396.800 80.558 C 396.800 80.260,394.047 80.400,393.857 80.707 M250.778 82.300 L 249.400 83.800 250.900 82.422 C 252.296 81.138,252.584 80.800,252.278 80.800 C 252.212 80.800,251.537 81.475,250.778 82.300 M256.267 81.067 C 255.124 82.209,256.231 88.030,257.580 87.975 C 257.947 87.960,257.820 87.797,257.269 87.576 C 256.387 87.223,256.346 87.037,256.469 84.001 C 256.541 82.239,256.585 80.799,256.567 80.799 C 256.548 80.800,256.413 80.920,256.267 81.067 M292.509 82.800 C 292.509 83.790,292.587 84.195,292.682 83.700 C 292.778 83.205,292.778 82.395,292.682 81.900 C 292.587 81.405,292.509 81.810,292.509 82.800 M191.328 84.000 C 191.328 85.430,191.401 86.015,191.489 85.300 C 191.578 84.585,191.578 83.415,191.489 82.700 C 191.401 81.985,191.328 82.570,191.328 84.000 M200.400 81.980 C 200.400 82.310,200.048 82.426,199.412 82.304 C 198.869 82.201,198.519 82.270,198.636 82.458 C 198.935 82.942,200.301 82.883,200.616 82.373 C 200.761 82.139,200.772 81.839,200.640 81.707 C 200.508 81.575,200.400 81.698,200.400 81.980 M217.387 84.100 L 215.000 86.600 217.500 84.213 C 218.875 82.899,220.000 81.774,220.000 81.713 C 220.000 81.417,219.605 81.778,217.387 84.100 M184.832 82.680 C 184.803 83.463,184.547 83.576,182.500 83.704 L 180.200 83.849 182.513 83.924 C 184.861 84.001,185.568 83.555,185.069 82.313 C 184.956 82.031,184.849 82.196,184.832 82.680 M193.324 84.200 C 193.326 85.520,193.401 86.012,193.490 85.293 C 193.579 84.574,193.577 83.494,193.486 82.893 C 193.395 82.292,193.322 82.880,193.324 84.200 M214.786 84.300 L 212.600 86.600 214.900 84.414 C 216.165 83.211,217.200 82.176,217.200 82.114 C 217.200 81.817,216.818 82.163,214.786 84.300 M226.926 82.600 C 226.990 83.237,227.348 83.425,228.678 83.522 C 229.713 83.597,230.420 83.867,230.534 84.230 C 230.652 84.605,230.696 84.562,230.656 84.108 C 230.609 83.576,230.178 83.370,228.922 83.278 C 227.768 83.194,227.188 82.947,227.048 82.478 C 226.901 81.985,226.868 82.018,226.926 82.600 M286.134 82.800 C 286.195 83.720,286.360 83.802,288.200 83.831 L 290.200 83.862 288.325 83.711 C 286.781 83.587,286.417 83.405,286.260 82.680 C 286.099 81.939,286.079 81.958,286.134 82.800 M337.737 85.000 C 337.739 86.760,337.809 87.430,337.893 86.489 C 337.978 85.549,337.977 84.109,337.891 83.289 C 337.805 82.470,337.736 83.240,337.737 85.000 M376.934 82.800 C 376.995 83.720,377.160 83.802,379.000 83.831 L 381.000 83.862 379.125 83.711 C 377.581 83.587,377.217 83.405,377.060 82.680 C 376.899 81.939,376.879 81.958,376.934 82.800 M153.536 85.563 C 153.461 86.863,153.535 87.842,153.700 87.739 C 153.865 87.637,154.000 86.641,154.000 85.527 C 154.000 83.656,154.053 83.544,154.700 84.051 C 155.334 84.549,155.349 84.534,154.851 83.900 C 153.945 82.745,153.678 83.082,153.536 85.563 M168.905 83.487 C 169.514 83.579,170.414 83.577,170.905 83.482 C 171.397 83.387,170.900 83.311,169.800 83.314 C 168.700 83.317,168.297 83.395,168.905 83.487 M323.705 83.487 C 324.314 83.579,325.214 83.577,325.705 83.482 C 326.197 83.387,325.700 83.311,324.600 83.314 C 323.500 83.317,323.097 83.395,323.705 83.487 M195.726 84.200 C 195.785 84.785,196.149 85.033,197.078 85.123 C 197.864 85.200,198.419 85.506,198.529 85.923 C 198.656 86.404,198.721 86.339,198.754 85.700 C 198.793 84.933,198.598 84.800,197.429 84.800 C 196.469 84.800,195.997 84.590,195.852 84.100 C 195.691 83.554,195.664 83.576,195.726 84.200 M200.509 85.200 C 200.509 86.190,200.587 86.595,200.682 86.100 C 200.778 85.605,200.778 84.795,200.682 84.300 C 200.587 83.805,200.509 84.210,200.509 85.200 M392.144 83.909 C 392.460 84.421,394.800 86.153,394.800 85.875 C 394.800 85.776,394.139 85.191,393.332 84.575 C 392.524 83.959,391.989 83.659,392.144 83.909 M249.139 86.000 C 249.062 87.100,249.135 88.000,249.300 88.000 C 249.465 88.000,249.600 87.100,249.600 86.000 C 249.600 83.419,249.317 83.420,249.139 86.000 M390.000 86.167 C 390.000 86.918,389.775 87.624,389.500 87.735 C 389.201 87.856,389.282 87.950,389.700 87.968 C 390.241 87.993,390.400 87.678,390.400 86.576 C 390.400 85.602,390.546 85.243,390.862 85.438 C 391.148 85.615,391.215 85.548,391.038 85.262 C 390.493 84.379,390.000 84.808,390.000 86.167 M286.101 86.600 C 286.105 87.480,286.187 87.793,286.283 87.295 C 286.379 86.798,286.375 86.078,286.275 85.695 C 286.175 85.313,286.096 85.720,286.101 86.600 M288.000 85.325 C 288.000 85.394,288.585 85.979,289.300 86.625 L 290.600 87.800 289.425 86.500 C 288.330 85.288,288.000 85.016,288.000 85.325 M376.901 86.600 C 376.905 87.480,376.987 87.793,377.083 87.295 C 377.179 86.798,377.175 86.078,377.075 85.695 C 376.975 85.313,376.896 85.720,376.901 86.600 M380.087 86.605 C 380.904 87.460,381.638 88.079,381.717 87.980 C 381.797 87.881,381.128 87.181,380.231 86.425 L 378.600 85.050 380.087 86.605 " stroke="none" fill="#b8b4b4" fill-rule="evenodd"></path><path id="path4" d="M0.000 45.000 L 0.000 90.000 200.000 90.000 L 400.000 90.000 400.000 45.000 L 400.000 0.000 200.000 0.000 L 0.000 0.000 0.000 45.000 M104.646 3.825 C 107.536 5.983,107.388 4.913,107.512 24.473 L 107.624 42.088 106.574 43.881 C 104.481 47.452,108.771 47.181,54.087 47.191 C 1.156 47.201,4.479 47.362,2.113 44.668 C 0.346 42.656,0.343 42.613,0.479 23.800 L 0.600 7.000 1.532 5.693 C 3.743 2.593,-0.584 2.820,54.471 2.915 C 103.342 3.000,103.546 3.003,104.646 3.825 M4.896 57.154 C 5.930 58.009,7.637 59.436,8.688 60.325 C 9.740 61.214,11.500 62.679,12.600 63.579 L 14.600 65.216 14.800 60.508 L 15.000 55.800 16.600 55.800 L 18.200 55.800 18.309 63.309 C 18.455 73.362,18.424 73.373,10.000 66.216 C 7.030 63.693,4.465 61.622,4.300 61.614 C 4.135 61.606,4.000 63.667,4.000 66.192 C 4.000 71.149,3.758 71.596,1.332 71.130 C 0.616 70.993,-0.049 57.747,0.578 56.113 C 0.972 55.087,2.980 55.572,4.896 57.154 M42.311 56.029 C 45.262 57.058,45.392 69.879,42.460 70.702 C 39.932 71.412,27.335 71.047,26.442 70.238 C 25.566 69.445,25.122 58.171,25.917 56.920 C 26.723 55.653,39.275 54.970,42.311 56.029 M57.529 60.000 C 59.381 62.310,61.010 64.234,61.148 64.275 C 61.287 64.316,62.850 62.426,64.623 60.075 C 67.605 56.121,67.958 55.791,69.332 55.675 L 70.817 55.551 70.709 63.275 L 70.600 71.000 69.200 71.000 L 67.800 71.000 67.687 66.500 C 67.551 61.092,67.514 61.082,64.181 65.500 C 60.900 69.850,60.840 69.847,57.406 65.221 L 54.600 61.442 54.487 66.117 C 54.377 70.712,54.358 70.795,53.388 71.039 C 51.234 71.579,51.200 71.458,51.200 63.188 L 51.200 55.552 52.680 55.676 C 54.030 55.789,54.459 56.171,57.529 60.000 M81.795 56.500 C 81.910 56.995,82.049 59.740,82.102 62.600 L 82.200 67.800 86.600 67.800 L 91.000 67.800 91.200 61.800 L 91.400 55.800 93.200 55.800 L 95.000 55.800 95.110 62.308 C 95.263 71.395,95.241 71.416,85.316 71.121 C 77.575 70.892,78.000 71.375,78.000 62.805 C 78.000 55.388,77.940 55.600,80.059 55.600 C 81.312 55.600,81.622 55.761,81.795 56.500 M118.036 56.744 C 118.800 57.689,119.065 59.397,118.500 59.729 C 117.225 60.479,115.533 60.431,115.326 59.638 C 115.119 58.849,114.839 58.800,110.528 58.800 L 105.949 58.800 106.075 60.100 L 106.200 61.400 111.887 61.600 C 118.775 61.842,118.981 61.961,118.992 65.707 C 119.008 70.972,118.959 71.000,109.864 71.000 C 102.835 71.000,102.000 70.681,102.000 67.998 C 102.000 66.278,105.290 65.571,105.716 67.200 C 105.909 67.938,106.259 68.000,110.263 67.994 C 115.163 67.987,115.719 67.793,115.532 66.157 L 115.400 65.000 109.713 64.800 C 102.929 64.561,102.712 64.443,102.647 60.931 C 102.552 55.823,102.922 55.595,111.136 55.713 C 117.052 55.797,117.300 55.834,118.036 56.744 M152.000 56.115 C 152.747 56.490,153.093 57.099,153.369 58.520 C 153.803 60.757,153.616 61.018,151.300 61.394 L 149.600 61.670 149.600 60.235 L 149.600 58.800 145.187 58.800 L 140.774 58.800 140.887 63.300 L 141.000 67.800 144.400 67.918 C 149.128 68.082,149.600 67.921,149.600 66.141 L 149.600 64.698 151.262 64.963 C 153.609 65.339,153.714 65.468,153.498 67.719 C 153.190 70.922,151.434 71.481,142.866 71.103 C 136.680 70.830,136.800 70.980,136.800 63.529 C 136.800 57.691,137.051 56.597,138.526 56.003 C 139.928 55.438,150.835 55.529,152.000 56.115 M177.887 56.514 C 178.988 57.617,178.960 69.401,177.855 70.209 C 175.803 71.709,161.997 71.578,160.757 70.046 C 159.032 67.916,159.799 56.794,161.726 55.990 C 163.462 55.266,177.081 55.708,177.887 56.514 M191.718 59.518 C 196.032 65.146,195.348 65.104,199.199 59.978 C 202.440 55.663,202.552 55.562,203.959 55.679 L 205.400 55.800 205.400 63.400 L 205.400 71.000 203.800 71.000 L 202.200 71.000 202.000 66.202 L 201.800 61.403 198.872 65.302 C 195.294 70.065,195.552 70.065,191.949 65.300 L 189.000 61.400 188.800 66.200 C 188.587 71.322,188.391 71.662,186.100 70.884 C 185.561 70.701,185.339 56.394,185.867 55.867 C 187.117 54.617,188.735 55.627,191.718 59.518 M218.746 59.779 C 220.540 62.077,222.153 64.047,222.330 64.157 C 222.507 64.266,224.156 62.376,225.996 59.958 C 229.249 55.682,229.380 55.563,230.770 55.680 L 232.200 55.800 232.200 63.400 L 232.200 71.000 230.600 71.000 L 229.000 71.000 228.887 66.500 C 228.751 61.087,228.833 61.109,225.444 65.600 C 222.102 70.028,222.331 70.038,218.749 65.300 L 215.800 61.400 215.600 66.200 L 215.400 71.000 214.000 71.000 L 212.600 71.000 212.490 63.813 C 212.364 55.510,212.346 55.600,214.129 55.600 C 215.374 55.600,215.748 55.939,218.746 59.779 M264.436 56.744 C 265.200 57.689,265.465 59.397,264.900 59.729 C 263.625 60.479,261.933 60.431,261.726 59.638 C 261.519 58.849,261.239 58.800,256.928 58.800 L 252.349 58.800 252.475 60.100 L 252.600 61.400 258.287 61.600 C 265.273 61.846,265.299 61.862,265.358 66.161 C 265.424 70.916,265.275 71.000,256.754 71.000 C 250.064 71.000,249.914 70.981,249.165 70.056 C 248.132 68.780,248.151 66.925,249.200 66.627 C 249.640 66.502,250.360 66.298,250.800 66.173 C 251.415 65.999,251.600 66.137,251.600 66.773 C 251.600 67.228,251.645 67.608,251.700 67.617 C 253.178 67.872,258.982 68.004,260.261 67.812 C 261.925 67.562,262.000 67.492,262.000 66.175 L 262.000 64.800 256.444 64.800 C 249.788 64.800,249.210 64.537,248.909 61.375 C 248.411 56.140,249.314 55.545,257.536 55.691 C 263.439 55.796,263.702 55.836,264.436 56.744 M276.023 58.457 L 278.646 61.316 281.204 58.458 C 283.703 55.667,283.808 55.600,285.682 55.600 C 288.253 55.600,288.168 55.848,284.100 60.226 L 280.600 63.992 280.400 67.496 L 280.200 71.000 278.400 71.000 L 276.600 71.000 276.483 67.642 L 276.366 64.285 272.616 60.251 C 268.436 55.754,268.393 55.601,271.324 55.599 C 273.388 55.597,273.416 55.614,276.023 58.457 M307.159 56.562 C 307.971 57.297,308.323 59.363,307.700 59.729 C 306.425 60.479,304.733 60.431,304.526 59.638 C 304.319 58.849,304.039 58.800,299.728 58.800 L 295.149 58.800 295.275 60.100 L 295.400 61.400 301.048 61.511 C 307.820 61.643,308.076 61.792,308.317 65.723 C 308.616 70.585,307.679 71.200,300.000 71.188 C 292.985 71.177,291.200 70.524,291.200 67.966 C 291.200 66.789,291.804 66.400,293.633 66.400 C 294.364 66.400,294.800 66.608,294.800 66.957 C 294.800 67.826,295.824 68.026,299.949 67.965 C 304.643 67.894,304.800 67.837,304.800 66.187 L 304.800 64.859 298.967 64.730 C 292.387 64.583,292.247 64.519,291.782 61.418 C 291.408 58.923,292.169 56.555,293.507 56.048 C 295.549 55.275,306.181 55.675,307.159 56.562 M329.200 57.200 L 329.200 58.800 325.810 58.800 L 322.421 58.800 322.310 64.900 L 322.200 71.000 320.849 71.129 C 318.880 71.317,318.764 71.012,318.747 65.561 C 318.724 58.430,318.952 58.853,315.061 58.716 C 311.993 58.607,311.792 58.545,311.668 57.671 C 311.374 55.592,311.339 55.600,320.587 55.600 L 329.200 55.600 329.200 57.200 M348.800 57.200 L 348.800 58.800 343.000 58.800 L 337.200 58.800 337.200 60.200 L 337.200 61.600 340.600 61.600 L 344.000 61.600 344.000 63.000 L 344.000 64.400 340.577 64.400 L 337.154 64.400 337.277 66.100 L 337.400 67.800 342.682 67.850 C 349.044 67.911,349.291 67.981,349.126 69.697 L 349.000 71.000 341.200 71.000 L 333.400 71.000 333.290 63.813 C 333.230 59.861,333.269 56.396,333.378 56.113 C 333.529 55.720,335.360 55.600,341.187 55.600 L 348.800 55.600 348.800 57.200 M361.468 59.996 C 365.333 64.907,365.043 64.837,367.483 61.447 C 370.975 56.597,371.990 55.600,373.437 55.600 L 374.800 55.600 374.800 63.423 L 374.800 71.246 373.100 71.123 L 371.400 71.000 371.200 66.335 L 371.000 61.669 368.200 65.429 C 364.907 69.850,364.892 69.854,362.698 66.960 C 357.843 60.555,358.063 60.562,357.906 66.800 L 357.800 71.000 356.600 71.000 L 355.400 71.000 355.291 63.300 L 355.183 55.600 356.596 55.600 C 357.918 55.600,358.232 55.884,361.468 59.996 M396.573 56.163 C 397.946 56.736,398.913 58.862,398.140 59.608 C 397.234 60.486,394.800 60.512,394.800 59.645 C 394.800 58.834,394.614 58.800,390.200 58.800 L 385.600 58.800 385.600 60.200 L 385.600 61.600 391.200 61.600 C 398.215 61.600,398.400 61.717,398.400 66.156 C 398.400 70.977,398.360 71.000,390.047 71.000 C 382.436 71.000,381.905 70.824,381.364 68.118 C 381.130 66.952,381.210 66.816,382.254 66.582 C 382.884 66.441,383.715 66.240,384.100 66.136 C 384.593 66.002,384.800 66.178,384.800 66.730 C 384.800 67.835,385.307 67.936,390.231 67.809 L 394.600 67.696 394.724 66.248 L 394.848 64.800 389.598 64.800 C 382.490 64.800,382.016 64.530,382.006 60.474 C 381.999 57.654,382.434 56.523,383.726 56.003 C 385.217 55.402,395.045 55.525,396.573 56.163 M29.287 63.300 L 29.400 67.800 34.000 67.916 C 40.846 68.089,40.400 68.418,40.400 63.192 L 40.400 58.800 34.787 58.800 L 29.174 58.800 29.287 63.300 M164.087 63.300 L 164.200 67.800 168.200 67.921 C 170.400 67.987,172.785 67.934,173.500 67.803 L 174.800 67.564 174.800 63.182 L 174.800 58.800 169.387 58.800 L 163.974 58.800 164.087 63.300 M243.500 61.595 C 243.816 61.598,244.000 62.190,244.000 63.200 L 244.000 64.800 240.400 64.800 L 236.800 64.800 236.800 63.220 L 236.800 61.640 239.100 61.488 C 240.365 61.405,241.760 61.393,242.200 61.463 C 242.640 61.532,243.225 61.592,243.500 61.595 M147.000 79.800 C 147.000 80.530,146.695 80.610,143.500 80.716 C 140.329 80.820,140.000 80.905,140.000 81.616 C 140.000 82.290,140.280 82.400,142.000 82.400 C 143.733 82.400,144.000 82.507,144.000 83.200 C 144.000 83.893,143.733 84.000,142.000 84.000 C 140.133 84.000,140.000 84.067,140.000 85.000 C 140.000 85.993,140.025 86.000,143.628 86.000 C 147.161 86.000,147.252 86.023,147.128 86.900 C 147.005 87.767,146.830 87.804,142.300 87.913 L 137.600 88.025 137.600 83.400 L 137.600 78.775 142.300 78.887 C 146.696 78.993,147.000 79.052,147.000 79.800 M246.999 80.451 L 248.490 82.102 249.945 80.417 C 251.202 78.960,251.584 78.749,252.754 78.866 L 254.108 79.000 251.866 81.400 C 249.739 83.676,249.623 83.908,249.612 85.900 C 249.600 87.964,249.579 88.000,248.400 88.000 C 247.232 88.000,247.200 87.948,247.200 86.068 C 247.200 84.288,247.027 83.946,245.000 81.705 C 242.412 78.845,242.399 78.800,244.153 78.800 C 245.232 78.800,245.810 79.136,246.999 80.451 M309.628 81.650 L 313.000 84.500 313.118 81.650 C 313.230 78.922,313.277 78.800,314.218 78.800 L 315.200 78.800 315.200 83.400 C 315.200 89.110,315.036 89.170,310.327 85.183 L 307.000 82.367 306.882 85.208 C 306.765 88.036,306.759 88.049,305.682 87.925 L 304.600 87.800 304.485 83.828 C 304.305 77.637,304.688 77.474,309.628 81.650 M156.200 82.642 L 159.000 84.880 159.120 82.640 C 159.231 80.562,159.311 80.400,160.220 80.400 C 161.191 80.400,161.200 80.434,161.200 84.200 C 161.200 88.881,160.935 88.981,156.953 85.802 L 154.200 83.604 154.000 85.702 C 153.829 87.500,153.671 87.818,152.900 87.928 C 152.020 88.053,152.000 87.969,152.000 84.228 C 152.000 79.527,152.205 79.450,156.200 82.642 M174.000 81.200 C 174.000 81.929,173.733 82.000,171.000 82.000 C 168.600 82.000,168.000 82.120,168.000 82.600 C 168.000 83.044,168.467 83.200,169.800 83.200 C 171.333 83.200,171.600 83.319,171.600 84.000 C 171.600 84.681,171.333 84.800,169.800 84.800 C 168.267 84.800,168.000 84.919,168.000 85.600 C 168.000 86.329,168.267 86.400,171.000 86.400 C 173.733 86.400,174.000 86.471,174.000 87.200 C 174.000 87.947,173.733 88.000,170.000 88.000 L 166.000 88.000 166.000 84.200 L 166.000 80.400 170.000 80.400 C 173.733 80.400,174.000 80.453,174.000 81.200 M186.324 80.745 C 187.313 81.372,186.775 84.975,185.670 85.132 C 184.784 85.257,184.813 85.328,186.270 86.615 L 187.800 87.967 186.464 87.983 C 185.499 87.995,184.672 87.610,183.492 86.600 C 182.592 85.830,181.528 85.200,181.128 85.200 C 180.563 85.200,180.400 85.513,180.400 86.600 C 180.400 87.827,180.276 88.000,179.400 88.000 C 178.404 88.000,178.400 87.987,178.400 84.200 L 178.400 80.400 182.100 80.406 C 184.135 80.409,186.036 80.562,186.324 80.745 M200.171 81.029 C 201.375 82.232,200.232 83.387,198.752 82.463 C 198.345 82.208,197.018 82.000,195.805 82.000 L 193.600 82.000 193.600 84.200 L 193.600 86.400 196.000 86.400 C 198.682 86.400,199.578 85.365,197.103 85.125 C 194.346 84.859,195.227 83.600,198.171 83.600 L 200.800 83.600 200.800 85.026 C 200.800 87.753,200.424 88.001,196.286 87.994 C 194.259 87.991,192.336 87.821,192.014 87.617 C 191.095 87.036,190.918 81.939,191.787 81.070 C 192.727 80.130,199.241 80.098,200.171 81.029 M207.600 84.227 L 207.600 88.053 206.500 87.927 C 204.526 87.699,204.611 80.400,206.587 80.400 L 207.600 80.400 207.600 84.227 M220.400 80.889 C 220.400 81.158,219.280 82.508,217.912 83.889 L 215.423 86.400 217.912 86.400 C 220.133 86.400,220.400 86.486,220.400 87.200 C 220.400 87.949,220.133 88.000,216.200 88.000 C 211.153 88.000,211.113 87.917,214.488 84.511 L 216.977 82.000 214.912 82.000 C 212.887 82.000,212.108 81.596,212.600 80.800 C 212.975 80.194,220.400 80.279,220.400 80.889 M233.125 81.300 C 233.243 81.917,232.899 82.000,230.229 82.000 C 226.752 82.000,225.664 83.043,228.897 83.277 C 231.470 83.464,231.586 84.800,229.029 84.800 C 227.467 84.800,227.200 84.917,227.200 85.600 C 227.200 86.329,227.467 86.400,230.200 86.400 C 232.951 86.400,233.200 86.468,233.200 87.214 C 233.200 87.987,232.994 88.022,229.100 87.914 L 225.000 87.800 224.882 84.635 C 224.715 80.165,224.527 80.352,229.088 80.485 C 232.433 80.584,233.010 80.700,233.125 81.300 M264.967 80.643 C 265.474 80.837,265.600 81.547,265.600 84.200 C 265.600 86.853,265.474 87.563,264.967 87.757 C 263.781 88.212,256.982 88.022,256.480 87.520 C 255.673 86.713,255.850 81.327,256.700 80.832 C 257.455 80.392,263.928 80.244,264.967 80.643 M272.718 83.500 L 272.835 86.400 275.018 86.400 L 277.200 86.400 277.200 83.373 L 277.200 80.347 278.300 80.473 L 279.400 80.600 279.400 83.915 C 279.400 87.954,279.364 87.986,274.714 87.994 C 270.519 88.001,270.400 87.875,270.400 83.400 L 270.400 80.347 271.500 80.473 C 272.575 80.597,272.603 80.667,272.718 83.500 M292.377 80.972 C 293.189 81.950,292.737 84.514,291.659 85.048 L 290.717 85.515 291.959 86.433 C 293.517 87.585,293.528 88.000,292.001 88.000 C 291.193 88.000,290.297 87.544,289.253 86.600 C 288.400 85.830,287.410 85.200,287.052 85.200 C 286.574 85.200,286.400 85.573,286.400 86.600 C 286.400 87.827,286.276 88.000,285.400 88.000 C 284.404 88.000,284.400 87.987,284.400 84.200 L 284.400 80.400 288.151 80.400 C 290.916 80.400,292.027 80.550,292.377 80.972 M328.800 81.200 C 328.800 81.929,328.533 82.000,325.800 82.000 C 323.400 82.000,322.800 82.120,322.800 82.600 C 322.800 83.044,323.267 83.200,324.600 83.200 C 326.133 83.200,326.400 83.319,326.400 84.000 C 326.400 84.681,326.133 84.800,324.600 84.800 C 323.067 84.800,322.800 84.919,322.800 85.600 C 322.800 86.329,323.067 86.400,325.800 86.400 C 328.533 86.400,328.800 86.471,328.800 87.200 C 328.800 87.947,328.533 88.000,324.800 88.000 L 320.800 88.000 320.800 84.200 L 320.800 80.400 324.800 80.400 C 328.533 80.400,328.800 80.453,328.800 81.200 M341.200 81.200 C 341.200 81.867,340.933 82.000,339.600 82.000 L 338.000 82.000 338.000 85.000 C 338.000 87.919,337.973 88.000,337.018 88.000 C 336.075 88.000,336.030 87.881,335.918 85.100 L 335.800 82.200 334.100 82.077 C 332.726 81.978,332.400 81.805,332.400 81.177 C 332.400 80.455,332.710 80.400,336.800 80.400 C 340.933 80.400,341.200 80.448,341.200 81.200 M347.355 82.722 C 348.201 85.082,348.381 85.043,349.409 82.280 C 350.379 79.674,351.350 79.828,352.597 82.786 L 353.518 84.971 354.111 83.551 C 354.438 82.769,354.828 81.741,354.979 81.265 C 355.241 80.441,356.553 80.060,356.929 80.700 C 357.025 80.865,356.441 82.530,355.631 84.400 C 353.829 88.559,353.117 88.804,351.854 85.700 C 350.804 83.119,350.796 83.119,349.748 85.700 C 348.401 89.020,347.569 88.804,345.991 84.723 C 345.284 82.895,344.612 81.161,344.498 80.868 C 344.348 80.485,344.612 80.373,345.442 80.468 C 346.433 80.581,346.702 80.898,347.355 82.722 M369.920 80.880 C 370.203 81.163,370.400 82.524,370.400 84.200 C 370.400 87.899,370.273 88.000,365.600 88.000 C 360.927 88.000,360.800 87.899,360.800 84.200 C 360.800 80.501,360.927 80.400,365.600 80.400 C 368.053 80.400,369.613 80.573,369.920 80.880 M383.177 80.972 C 383.979 81.939,383.538 84.513,382.479 85.038 L 381.559 85.494 382.779 86.521 C 384.321 87.818,384.309 88.000,382.678 88.000 C 381.693 88.000,381.012 87.644,380.000 86.600 C 379.254 85.830,378.318 85.200,377.922 85.200 C 377.364 85.200,377.200 85.517,377.200 86.600 C 377.200 87.816,377.072 88.000,376.228 88.000 C 375.330 88.000,374.380 81.343,375.167 80.565 C 375.656 80.081,382.736 80.441,383.177 80.972 M390.327 81.700 C 390.484 83.064,390.471 83.065,392.636 81.575 C 393.912 80.697,394.782 80.386,395.708 80.475 L 397.000 80.600 395.344 81.800 C 394.433 82.460,393.370 83.189,392.981 83.420 C 392.364 83.787,392.584 84.065,394.726 85.620 C 398.533 88.385,396.661 89.278,392.684 86.593 L 390.600 85.186 390.474 86.617 C 390.361 87.909,390.245 88.036,389.274 87.924 C 388.203 87.800,387.432 82.856,388.180 80.907 C 388.572 79.885,390.186 80.481,390.327 81.700 M180.400 82.800 C 180.400 83.503,180.667 83.600,182.600 83.600 C 184.533 83.600,184.800 83.503,184.800 82.800 C 184.800 82.097,184.533 82.000,182.600 82.000 C 180.667 82.000,180.400 82.097,180.400 82.800 M258.000 84.200 L 258.000 86.400 260.800 86.400 L 263.600 86.400 263.600 84.200 L 263.600 82.000 260.800 82.000 L 258.000 82.000 258.000 84.200 M286.400 82.800 C 286.400 83.503,286.667 83.600,288.600 83.600 C 290.533 83.600,290.800 83.503,290.800 82.800 C 290.800 82.097,290.533 82.000,288.600 82.000 C 286.667 82.000,286.400 82.097,286.400 82.800 M362.800 84.200 L 362.800 86.437 365.500 86.318 L 368.200 86.200 368.200 84.200 L 368.200 82.200 365.500 82.082 L 362.800 81.963 362.800 84.200 M377.200 82.800 C 377.200 83.503,377.467 83.600,379.400 83.600 C 381.333 83.600,381.600 83.503,381.600 82.800 C 381.600 82.097,381.333 82.000,379.400 82.000 C 377.467 82.000,377.200 82.097,377.200 82.800 " stroke="none" fill="#fffeff" fill-rule="evenodd"></path></g></svg>